<?xml version="1.0" encoding="UTF-8"?> <svg xmlns="http://www.w3.org/2000/svg" viewBox="0 0 400 250" clip-path="url(#clip)" width="1051" height="656.875" style="max-height: 824.667px;"><defs><clipPath id="clip"><rect x="0" y="0" width="400" height="250"></rect></clipPath></defs><rect x="0" y="0" width="400" height="250" fill="rgb(0, 0, 0)"></rect><filter id="g0.6"><feGaussianBlur stdDeviation="0.6"></feGaussianBlur></filter><filter id="g1"><feGaussianBlur stdDeviation="1"></feGaussianBlur></filter><filter id="g10"><feGaussianBlur stdDeviation="10"></feGaussianBlur></filter><path d="M380,137L0,222L373,102Z" fill="rgb(255, 255, 255)" fill-opacity="0.50"></path><path d="M191,136L400,-24L114,138Z" fill="rgb(255, 255, 255)" fill-opacity="0.50"></path><path d="M88,210L190,243L644,214Z" fill="rgb(255, 255, 255)" fill-opacity="0.50"></path><path d="M389,206L389,235L305,236Z" fill="rgb(250, 251, 249)" fill-opacity="0.50"></path><path d="M63,182L133,159L117,134Z" fill="rgb(250, 250, 249)" fill-opacity="0.50"></path><path d="M124,215L150,238L67,223Z" fill="rgb(248, 248, 247)" fill-opacity="0.50"></path><path d="M245,144L170,193L130,174Z" fill="rgb(234, 237, 239)" fill-opacity="0.50"></path><path d="M167,137L136,154L127,128Z" fill="rgb(234, 237, 240)" fill-opacity="0.50"></path><path d="M285,70L235,66L367,15Z" fill="rgb(253, 254, 254)" fill-opacity="0.50"></path><path d="M160,228L143,219L142,233Z" fill="rgb(0, 0, 0)" fill-opacity="0.50"></path><path d="M161,166L173,133L262,81Z" fill="rgb(0, 0, 0)" fill-opacity="0.50"></path><path d="M83,195L141,169L94,204Z" fill="rgb(220, 220, 219)" fill-opacity="0.50"></path><path d="M305,-39L423,34L342,30Z" fill="rgb(0, 0, 0)" fill-opacity="0.50"></path><path d="M334,330L162,236L302,236Z" fill="rgb(0, 0, 0)" fill-opacity="0.50"></path><path d="M171,189L102,163L110,205Z" fill="rgb(114, 115, 114)" fill-opacity="0.50"></path><path d="M142,172L154,193L136,189Z" fill="rgb(0, 0, 0)" fill-opacity="0.50"></path><path d="M213,212L299,236L336,211Z" fill="rgb(223, 226, 228)" fill-opacity="0.50"></path><path d="M393,179L388,228L411,259Z" fill="rgb(0, 0, 0)" fill-opacity="0.50"></path><path d="M345,35L330,8L294,60Z" fill="rgb(240, 240, 238)" fill-opacity="0.50"></path><path d="M167,210L315,225L149,225Z" fill="rgb(233, 236, 240)" fill-opacity="0.50"></path><path d="M108,217L109,229L77,223Z" fill="rgb(255, 255, 255)" fill-opacity="0.50"></path><path d="M372,110L270,139L381,134Z" fill="rgb(249, 250, 250)" fill-opacity="0.50"></path><path d="M83,193L-6,221L57,256Z" fill="rgb(0, 0, 0)" fill-opacity="0.50"></path><path d="M418,10L347,38L315,-18Z" fill="rgb(0, 0, 0)" fill-opacity="0.50"></path><path d="M262,136L179,186L252,167Z" fill="rgb(200, 202, 203)" fill-opacity="0.50"></path><path d="M359,18L370,111L265,138Z" fill="rgb(0, 0, 0)" fill-opacity="0.50"></path><path d="M154,144L256,85L252,142Z" fill="rgb(0, 0, 0)" fill-opacity="0.50"></path><path d="M185,105L97,147L72,183Z" fill="rgb(180, 182, 184)" fill-opacity="0.50"></path><path d="M125,134L231,72L203,116Z" fill="rgb(222, 225, 227)" fill-opacity="0.50"></path><path d="M171,236L154,210L151,236Z" fill="rgb(190, 194, 196)" fill-opacity="0.50"></path><path d="M280,211L385,130L322,147Z" fill="rgb(0, 0, 0)" fill-opacity="0.50"></path><path d="M183,173L187,181L217,166Z" fill="rgb(102, 101, 99)" fill-opacity="0.50"></path><path d="M111,231L113,236L189,236Z" fill="rgb(163, 163, 162)" fill-opacity="0.50"></path><path d="M335,146L319,123L211,156Z" fill="rgb(211, 214, 215)" fill-opacity="0.50"></path><path d="M187,98L249,62L255,86Z" fill="rgb(212, 214, 216)" fill-opacity="0.50"></path><path d="M391,240L386,210L386,243Z" fill="rgb(243, 244, 243)" fill-opacity="0.50"></path><path d="M238,82L267,66L234,69Z" fill="rgb(213, 216, 218)" fill-opacity="0.50"></path><path d="M275,63L281,42L328,18Z" fill="rgb(222, 225, 226)" fill-opacity="0.50"></path><path d="M76,169L100,162L74,180Z" fill="rgb(255, 255, 255)" fill-opacity="0.50"></path><path d="M293,254L287,245L289,216Z" fill="rgb(20, 21, 21)" fill-opacity="0.50"></path><path d="M130,203L40,201L106,219Z" fill="rgb(0, 0, 0)" fill-opacity="0.50"></path><path d="M110,205L165,189L115,195Z" fill="rgb(159, 159, 159)" fill-opacity="0.50"></path><path d="M348,42L331,25L337,20Z" fill="rgb(255, 255, 254)" fill-opacity="0.50"></path><path d="M371,213L316,212L310,234Z" fill="rgb(225, 228, 229)" fill-opacity="0.50"></path><path d="M389,228L412,265L390,169Z" fill="rgb(0, 0, 0)" fill-opacity="0.50"></path><path d="M18,134L11,359L85,186Z" fill="rgb(4, 4, 4)" fill-opacity="0.50"></path><path d="M387,211L373,213L379,187Z" fill="rgb(0, 0, 0)" fill-opacity="0.50"></path><path d="M130,139L136,142L182,114Z" fill="rgb(246, 248, 248)" fill-opacity="0.50"></path><path d="M264,81L308,54L271,45Z" fill="rgb(174, 175, 175)" fill-opacity="0.50"></path><path d="M173,122L203,102L212,111Z" fill="rgb(113, 113, 111)" fill-opacity="0.50"></path><path d="M333,14L333,23L327,6Z" fill="rgb(253, 254, 254)" fill-opacity="0.50"></path><path d="M388,233L389,218L345,234Z" fill="rgb(228, 226, 223)" fill-opacity="0.50"></path><path d="M74,238L88,230L71,211Z" fill="rgb(1, 1, 1)" fill-opacity="0.50"></path><path d="M316,149L367,134L348,117Z" fill="rgb(208, 209, 208)" fill-opacity="0.50"></path><path d="M147,196L245,185L177,186Z" fill="rgb(0, 0, 0)" fill-opacity="0.50"></path><path d="M75,158L105,164L83,148Z" fill="rgb(9, 9, 8)" fill-opacity="0.50"></path><path d="M108,141L131,120L129,137Z" fill="rgb(20, 19, 18)" fill-opacity="0.50"></path><path d="M175,175L136,189L182,181Z" fill="rgb(86, 86, 86)" fill-opacity="0.50"></path><path d="M78,208L95,200L136,225Z" fill="rgb(12, 12, 11)" fill-opacity="0.50"></path><path d="M330,121L372,110L284,67Z" fill="rgb(0, 0, 0)" fill-opacity="0.50"></path><path d="M109,224L112,230L106,242Z" fill="rgb(4, 4, 4)" fill-opacity="0.50"></path><path d="M263,138L265,164L282,156Z" fill="rgb(192, 193, 194)" fill-opacity="0.50"></path><path d="M78,197L109,189L87,203Z" fill="rgb(255, 255, 255)" fill-opacity="0.50"></path><path d="M154,226L151,211L160,224Z" fill="rgb(234, 235, 235)" fill-opacity="0.50"></path><path d="M268,61L281,80L268,65Z" fill="rgb(5, 5, 5)" fill-opacity="0.50"></path><path d="M105,181L105,201L143,171Z" fill="rgb(136, 135, 134)" fill-opacity="0.50"></path><path d="M251,60L206,60L237,68Z" fill="rgb(0, 0, 0)" fill-opacity="0.50"></path><path d="M357,225L334,221L389,224Z" fill="rgb(249, 250, 250)" fill-opacity="0.50"></path><path d="M151,216L252,216L206,211Z" fill="rgb(215, 217, 218)" fill-opacity="0.50"></path><path d="M333,13L379,94L362,-102Z" fill="rgb(0, 0, 0)" fill-opacity="0.50"></path><path d="M310,41L314,46L288,56Z" fill="rgb(147, 146, 143)" fill-opacity="0.50"></path><path d="M143,212L145,275L152,215Z" fill="rgb(14, 16, 17)" fill-opacity="0.50"></path><path d="M114,167L144,170L85,186Z" fill="rgb(0, 0, 0)" fill-opacity="0.50"></path><path d="M281,230L274,222L258,226Z" fill="rgb(116, 116, 113)" fill-opacity="0.50"></path><path d="M310,231L308,237L309,215Z" fill="rgb(6, 7, 8)" fill-opacity="0.50"></path><path d="M240,88L242,97L234,82Z" fill="rgb(2, 3, 2)" fill-opacity="0.50"></path><path d="M111,220L112,202L66,203Z" fill="rgb(0, 0, 0)" fill-opacity="0.50"></path><path d="M377,331L88,236L303,236Z" fill="rgb(0, 0, 0)" fill-opacity="0.50"></path><path d="M381,145L381,135L372,120Z" fill="rgb(214, 214, 212)" fill-opacity="0.50"></path><path d="M328,42L317,22L345,32Z" fill="rgb(201, 201, 198)" fill-opacity="0.50"></path><path d="M100,173L126,162L118,134Z" fill="rgb(105, 105, 103)" fill-opacity="0.50"></path><path d="M240,236L118,236L289,252Z" fill="rgb(0, 0, 0)" fill-opacity="0.50"></path><path d="M360,123L319,136L373,123Z" fill="rgb(253, 254, 253)" fill-opacity="0.50"></path><path d="M204,141L194,146L186,113Z" fill="rgb(0, 0, 0)" fill-opacity="0.50"></path><path d="M254,235L269,235L268,210Z" fill="rgb(189, 191, 190)" fill-opacity="0.50"></path><path d="M83,165L72,176L93,172Z" fill="rgb(255, 255, 255)" fill-opacity="0.50"></path><path d="M133,157L121,157L139,151Z" fill="rgb(146, 147, 146)" fill-opacity="0.50"></path><path d="M242,153L245,163L244,176Z" fill="rgb(14, 14, 13)" fill-opacity="0.50"></path><path d="M170,184L196,182L214,175Z" fill="rgb(176, 177, 177)" fill-opacity="0.50"></path><path d="M144,197L137,182L148,182Z" fill="rgb(0, 0, 0)" fill-opacity="0.50"></path><path d="M137,236L164,225L156,236Z" fill="rgb(107, 109, 110)" fill-opacity="0.50"></path><path d="M291,37L261,54L293,64Z" fill="rgb(195, 196, 197)" fill-opacity="0.50"></path><path d="M199,156L147,186L146,170Z" fill="rgb(214, 216, 218)" fill-opacity="0.50"></path><path d="M76,217L82,191L58,194Z" fill="rgb(0, 0, 0)" fill-opacity="0.50"></path><path d="M331,15L347,38L346,42Z" fill="rgb(244, 245, 245)" fill-opacity="0.50"></path><path d="M85,203L78,200L95,192Z" fill="rgb(250, 250, 248)" fill-opacity="0.50"></path><path d="M142,236L109,212L145,212Z" fill="rgb(128, 128, 126)" fill-opacity="0.50"></path><path d="M153,138L150,130L171,162Z" fill="rgb(7, 7, 7)" fill-opacity="0.50"></path><path d="M327,43L303,56L309,26Z" fill="rgb(203, 203, 203)" fill-opacity="0.50"></path><path d="M251,59L275,73L258,84Z" fill="rgb(182, 183, 183)" fill-opacity="0.50"></path><path d="M226,167L226,175L222,158Z" fill="rgb(4, 4, 4)" fill-opacity="0.50"></path><path d="M319,210L378,132L340,142Z" fill="rgb(0, 0, 0)" fill-opacity="0.50"></path><path d="M167,183L149,190L162,191Z" fill="rgb(191, 193, 196)" fill-opacity="0.50"></path><path d="M261,137L305,128L351,110Z" fill="rgb(0, 0, 0)" fill-opacity="0.50"></path><path d="M342,216L342,209L321,219Z" fill="rgb(203, 204, 204)" fill-opacity="0.50"></path><path d="M239,144L195,157L218,167Z" fill="rgb(192, 193, 195)" fill-opacity="0.50"></path><path d="M93,171L94,158L81,168Z" fill="rgb(251, 253, 251)" fill-opacity="0.50"></path><path d="M99,228L83,221L100,217Z" fill="rgb(255, 255, 255)" fill-opacity="0.50"></path><path d="M110,169L134,169L83,190Z" fill="rgb(0, 0, 0)" fill-opacity="0.50"></path><path d="M108,173L133,173L133,155Z" fill="rgb(0, 0, 0)" fill-opacity="0.50"></path><path d="M371,110L336,119L334,37Z" fill="rgb(0, 0, 0)" fill-opacity="0.50"></path><path d="M305,152L347,213L378,133Z" fill="rgb(0, 0, 0)" fill-opacity="0.50"></path><path d="M113,235L115,232L114,220Z" fill="rgb(0, 0, 0)" fill-opacity="0.50"></path><path d="M364,228L386,222L383,235Z" fill="rgb(175, 173, 169)" fill-opacity="0.50"></path><path d="M322,17L328,-1L328,19Z" fill="rgb(1, 1, 1)" fill-opacity="0.50"></path><path d="M262,140L250,89L151,146Z" fill="rgb(0, 0, 0)" fill-opacity="0.50"></path><path d="M233,236L265,233L233,225Z" fill="rgb(169, 171, 171)" fill-opacity="0.50"></path><path d="M265,138L336,120L290,157Z" fill="rgb(176, 178, 179)" fill-opacity="0.50"></path><path d="M215,80L237,68L226,104Z" fill="rgb(183, 185, 185)" fill-opacity="0.50"></path><path d="M172,130L168,127L168,120Z" fill="rgb(11, 11, 11)" fill-opacity="0.50"></path><path d="M104,169L111,138L93,172Z" fill="rgb(84, 83, 82)" fill-opacity="0.50"></path><path d="M262,164L252,167L259,147Z" fill="rgb(188, 189, 188)" fill-opacity="0.50"></path><path d="M187,161L206,153L192,173Z" fill="rgb(202, 204, 206)" fill-opacity="0.50"></path><path d="M140,136L154,139L150,147Z" fill="rgb(186, 186, 185)" fill-opacity="0.50"></path><path d="M82,134L55,175L96,159Z" fill="rgb(0, 0, 0)" fill-opacity="0.50"></path><path d="M223,103L216,92L205,114Z" fill="rgb(177, 178, 178)" fill-opacity="0.50"></path><path d="M85,219L99,228L83,226Z" fill="rgb(248, 247, 244)" fill-opacity="0.50"></path><path d="M-3,222L87,222L44,225Z" fill="rgb(109, 110, 109)" fill-opacity="0.50"></path><path d="M194,218L186,235L168,218Z" fill="rgb(192, 195, 196)" fill-opacity="0.50"></path><path d="M291,49L299,46L288,31Z" fill="rgb(174, 176, 178)" fill-opacity="0.50"></path><path d="M153,225L169,220L171,225Z" fill="rgb(254, 254, 252)" fill-opacity="0.50"></path><path d="M388,179L390,233L422,250Z" fill="rgb(0, 0, 0)" fill-opacity="0.50"></path><path d="M206,176L211,185L204,163Z" fill="rgb(16, 16, 16)" fill-opacity="0.50"></path><path d="M173,234L173,219L169,255Z" fill="rgb(10, 11, 11)" fill-opacity="0.50"></path><path d="M143,172L106,180L106,186Z" fill="rgb(153, 152, 151)" fill-opacity="0.50"></path><path d="M220,123L198,100L221,134Z" fill="rgb(11, 11, 11)" fill-opacity="0.50"></path><path d="M375,118L371,104L369,113Z" fill="rgb(253, 254, 254)" fill-opacity="0.50"></path><path d="M136,143L143,157L121,139Z" fill="rgb(16, 17, 19)" fill-opacity="0.50"></path><path d="M130,137L147,136L133,142Z" fill="rgb(242, 242, 242)" fill-opacity="0.50"></path><path d="M120,139L127,132L111,141Z" fill="rgb(163, 163, 160)" fill-opacity="0.50"></path><path d="M341,35L367,75L321,46Z" fill="rgb(0, 0, 0)" fill-opacity="0.50"></path><path d="M269,256L272,228L269,220Z" fill="rgb(10, 10, 10)" fill-opacity="0.50"></path><path d="M108,203L111,203L101,176Z" fill="rgb(9, 10, 11)" fill-opacity="0.50"></path><path d="M209,209L148,210L172,212Z" fill="rgb(6, 6, 5)" fill-opacity="0.50"></path><path d="M343,141L365,134L326,139Z" fill="rgb(221, 221, 221)" fill-opacity="0.50"></path><path d="M173,131L186,97L184,126Z" fill="rgb(181, 182, 183)" fill-opacity="0.50"></path><path d="M98,147L125,160L106,172Z" fill="rgb(129, 128, 127)" fill-opacity="0.50"></path><path d="M302,148L303,157L297,138Z" fill="rgb(3, 4, 3)" fill-opacity="0.50"></path><path d="M132,235L132,222L137,232Z" fill="rgb(31, 31, 31)" fill-opacity="0.50"></path><path d="M93,150L96,167L119,140Z" fill="rgb(126, 126, 123)" fill-opacity="0.50"></path><path d="M112,211L152,212L111,223Z" fill="rgb(141, 140, 139)" fill-opacity="0.50"></path><path d="M227,222L181,235L231,234Z" fill="rgb(175, 177, 176)" fill-opacity="0.50"></path><path d="M286,147L302,139L278,135Z" fill="rgb(204, 207, 209)" fill-opacity="0.50"></path><path d="M371,102L384,64L383,144Z" fill="rgb(1, 1, 1)" fill-opacity="0.50"></path><path d="M251,238L249,230L251,217Z" fill="rgb(3, 4, 4)" fill-opacity="0.50"></path><path d="M201,234L214,221L199,216Z" fill="rgb(190, 193, 194)" fill-opacity="0.50"></path><path d="M113,195L113,202L109,190Z" fill="rgb(10, 10, 11)" fill-opacity="0.50"></path><path d="M227,213L229,227L181,212Z" fill="rgb(195, 198, 200)" fill-opacity="0.50"></path><path d="M199,91L181,117L150,120Z" fill="rgb(201, 204, 206)" fill-opacity="0.50"></path><path d="M270,78L334,47L295,62Z" fill="rgb(9, 9, 9)" fill-opacity="0.50"></path><path d="M108,227L82,225L108,218Z" fill="rgb(247, 247, 246)" fill-opacity="0.50"></path><path d="M184,184L171,188L184,163Z" fill="rgb(168, 169, 169)" fill-opacity="0.50"></path><path d="M98,228L111,228L111,253Z" fill="rgb(0, 0, 0)" fill-opacity="0.50"></path><path d="M279,143L284,157L279,150Z" fill="rgb(12, 13, 12)" fill-opacity="0.50"></path><path d="M66,178L82,187L68,171Z" fill="rgb(0, 0, 0)" fill-opacity="0.50"></path><path d="M150,132L154,139L154,134Z" fill="rgb(12, 12, 11)" fill-opacity="0.50"></path><path d="M99,165L109,180L92,174Z" fill="rgb(0, 0, 0)" fill-opacity="0.50"></path><path d="M78,202L99,219L118,210Z" fill="rgb(0, 0, 0)" fill-opacity="0.50"></path><path d="M272,228L294,235L270,235Z" fill="rgb(175, 176, 177)" fill-opacity="0.50"></path><path d="M183,113L190,121L185,111Z" fill="rgb(23, 23, 22)" fill-opacity="0.50"></path><path d="M164,139L153,117L170,127Z" fill="rgb(190, 191, 192)" fill-opacity="0.50"></path><path d="M380,137L374,131L373,112Z" fill="rgb(253, 254, 252)" fill-opacity="0.50"></path><path d="M326,147L292,211L282,158Z" fill="rgb(0, 0, 0)" fill-opacity="0.50"></path><path d="M86,171L91,159L99,169Z" fill="rgb(223, 223, 222)" fill-opacity="0.50"></path><path d="M154,223L142,222L154,235Z" fill="rgb(1, 1, 1)" fill-opacity="0.50"></path><path d="M308,216L309,250L310,226Z" fill="rgb(12, 13, 13)" fill-opacity="0.50"></path><path d="M235,82L240,91L235,87Z" fill="rgb(13, 12, 11)" fill-opacity="0.50"></path><path d="M169,163L189,170L170,178Z" fill="rgb(206, 208, 211)" fill-opacity="0.50"></path><path d="M247,143L210,165L260,153Z" fill="rgb(207, 209, 212)" fill-opacity="0.50"></path><path d="M23,205L14,208L11,214Z" fill="rgb(55, 55, 55)" fill-opacity="0.50"></path><path d="M184,173L188,181L188,171Z" fill="rgb(24, 23, 23)" fill-opacity="0.50"></path><path d="M249,222L251,234L251,226Z" fill="rgb(0, 0, 0)" fill-opacity="0.50"></path><path d="M119,237L112,212L143,216Z" fill="rgb(126, 127, 125)" fill-opacity="0.50"></path><path d="M149,182L147,193L140,188Z" fill="rgb(0, 0, 0)" fill-opacity="0.50"></path><path d="M192,224L194,252L190,223Z" fill="rgb(5, 5, 5)" fill-opacity="0.50"></path><path d="M114,236L112,232L136,235Z" fill="rgb(150, 150, 149)" fill-opacity="0.50"></path><path d="M249,211L253,235L270,214Z" fill="rgb(188, 191, 192)" fill-opacity="0.50"></path><path d="M211,211L81,211L74,202Z" fill="rgb(0, 0, 0)" fill-opacity="0.50"></path><path d="M149,211L110,211L152,193Z" fill="rgb(0, 0, 0)" fill-opacity="0.50"></path><path d="M211,239L214,224L211,222Z" fill="rgb(5, 6, 6)" fill-opacity="0.50"></path><path d="M387,210L382,214L351,190Z" fill="rgb(0, 0, 0)" fill-opacity="0.50"></path><path d="M143,198L174,187L222,187Z" fill="rgb(0, 0, 0)" fill-opacity="0.50"></path><path d="M259,55L308,31L251,64Z" fill="rgb(203, 204, 204)" fill-opacity="0.50"></path><path d="M242,143L270,137L330,117Z" fill="rgb(0, 0, 0)" fill-opacity="0.50"></path><path d="M121,136L133,128L163,129Z" fill="rgb(182, 185, 188)" fill-opacity="0.50"></path><path d="M221,98L233,110L234,129Z" fill="rgb(0, 0, 0)" fill-opacity="0.50"></path><path d="M301,141L307,127L314,139Z" fill="rgb(203, 206, 207)" fill-opacity="0.50"></path><path d="M265,213L283,221L291,213Z" fill="rgb(210, 213, 215)" fill-opacity="0.50"></path><path d="M306,60L293,49L306,63Z" fill="rgb(182, 182, 180)" fill-opacity="0.50"></path><path d="M229,162L287,147L245,160Z" fill="rgb(117, 117, 113)" fill-opacity="0.50"></path><path d="M139,236L39,294L386,236Z" fill="rgb(0, 0, 0)" fill-opacity="0.50"></path><path d="M314,24L274,54L334,15Z" fill="rgb(211, 212, 212)" fill-opacity="0.50"></path><path d="M313,-25L388,0L338,23Z" fill="rgb(0, 0, 0)" fill-opacity="0.50"></path><path d="M271,221L333,213L346,225Z" fill="rgb(194, 198, 200)" fill-opacity="0.50"></path><path d="M103,188L80,201L106,198Z" fill="rgb(250, 251, 249)" fill-opacity="0.50"></path><path d="M128,186L132,191L132,199Z" fill="rgb(0, 0, 0)" fill-opacity="0.50"></path><path d="M276,45L263,69L288,41Z" fill="rgb(194, 197, 198)" fill-opacity="0.50"></path><path d="M14,222L10,176L-7,239Z" fill="rgb(0, 0, 0)" fill-opacity="0.50"></path><path d="M381,159L378,139L389,139Z" fill="rgb(0, 0, 0)" fill-opacity="0.50"></path><path d="M285,158L330,146L395,187Z" fill="rgb(0, 0, 0)" fill-opacity="0.50"></path><path d="M185,119L167,125L177,118Z" fill="rgb(122, 122, 119)" fill-opacity="0.50"></path><path d="M416,245L389,242L389,181Z" fill="rgb(0, 0, 0)" fill-opacity="0.50"></path><path d="M307,28L326,31L302,46Z" fill="rgb(221, 223, 225)" fill-opacity="0.50"></path><path d="M311,12L325,4L331,18Z" fill="rgb(4, 4, 4)" fill-opacity="0.50"></path><path d="M270,64L279,73L294,51Z" fill="rgb(159, 159, 157)" fill-opacity="0.50"></path><path d="M343,128L373,117L321,129Z" fill="rgb(160, 164, 168)" fill-opacity="0.50"></path><path d="M301,134L296,129L293,142Z" fill="rgb(151, 154, 154)" fill-opacity="0.50"></path><path d="M170,183L166,176L170,192Z" fill="rgb(5, 5, 4)" fill-opacity="0.50"></path><path d="M384,150L364,160L374,130Z" fill="rgb(2, 2, 2)" fill-opacity="0.50"></path><path d="M334,141L330,134L354,129Z" fill="rgb(149, 148, 146)" fill-opacity="0.50"></path><path d="M129,170L115,146L123,166Z" fill="rgb(19, 20, 19)" fill-opacity="0.50"></path><path d="M341,239L351,225L333,225Z" fill="rgb(151, 151, 149)" fill-opacity="0.50"></path><path d="M334,145L325,122L303,152Z" fill="rgb(186, 186, 185)" fill-opacity="0.50"></path><path d="M157,114L62,137L126,132Z" fill="rgb(0, 0, 0)" fill-opacity="0.50"></path><path d="M137,175L137,182L148,175Z" fill="rgb(50, 53, 57)" fill-opacity="0.50"></path><path d="M213,84L242,74L228,90Z" fill="rgb(196, 200, 203)" fill-opacity="0.50"></path><path d="M388,202L389,216L385,217Z" fill="rgb(235, 236, 237)" fill-opacity="0.50"></path><path d="M291,145L279,149L292,150Z" fill="rgb(120, 120, 116)" fill-opacity="0.50"></path><path d="M161,227L142,226L163,225Z" fill="rgb(38, 39, 40)" fill-opacity="0.50"></path><path d="M204,167L211,191L206,166Z" fill="rgb(24, 25, 25)" fill-opacity="0.50"></path><path d="M254,74L265,67L253,58Z" fill="rgb(198, 201, 204)" fill-opacity="0.50"></path><path d="M204,102L214,98L207,112Z" fill="rgb(139, 139, 138)" fill-opacity="0.50"></path><path d="M120,177L136,173L141,198Z" fill="rgb(138, 137, 136)" fill-opacity="0.50"></path><path d="M281,154L284,164L282,148Z" fill="rgb(42, 43, 42)" fill-opacity="0.50"></path><path d="M230,100L239,90L229,90Z" fill="rgb(186, 188, 187)" fill-opacity="0.50"></path><path d="M140,192L141,181L143,194Z" fill="rgb(0, 0, 0)" fill-opacity="0.50"></path><path d="M231,236L232,224L229,223Z" fill="rgb(3, 3, 3)" fill-opacity="0.50"></path><path d="M173,134L220,150L231,100Z" fill="rgb(0, 0, 0)" fill-opacity="0.50"></path><path d="M381,222L338,220L386,217Z" fill="rgb(157, 160, 164)" fill-opacity="0.50"></path><path d="M286,226L307,232L290,222Z" fill="rgb(114, 114, 112)" fill-opacity="0.50"></path></svg> 