<?xml version="1.0" encoding="UTF-8"?> <svg xmlns="http://www.w3.org/2000/svg" viewBox="0 0 331.17723156532986 400" clip-path="url(#clip)" width="682.7773350582148" height="824.667" style="max-height: 882px;"><defs><clipPath id="clip"><rect x="0" y="0" width="331.17723156532986" height="400"></rect></clipPath></defs><rect x="0" y="0" width="331.17723156532986" height="400" fill="rgb(0, 0, 0)"></rect><filter id="g0.6"><feGaussianBlur stdDeviation="0.6"></feGaussianBlur></filter><filter id="g1"><feGaussianBlur stdDeviation="1"></feGaussianBlur></filter><filter id="g10"><feGaussianBlur stdDeviation="10"></feGaussianBlur></filter><path d="M45,133L290,133L290,384L45,384Z" fill="rgb(255, 255, 236)" fill-opacity="0.50"></path><path d="M191,152L74,200L144,369L261,321Z" fill="rgb(255, 255, 255)" fill-opacity="0.50" filter="url(#g0.6)"></path><path d="M120,57L210,57L210,349L120,349Z" fill="rgb(255, 255, 255)" fill-opacity="0.50"></path><path d="M222,133L314,133L314,394L222,394Z" fill="rgb(135, 97, 0)" fill-opacity="0.50" filter="url(#g0.6)"></path><path d="M37,50L103,50L103,230L37,230Z" fill="rgb(0, 0, 0)" fill-opacity="0.50"></path><path d="M28,170L-415,392L-311,599L131,377Z" fill="rgb(193, 138, 0)" fill-opacity="0.50"></path><path d="M201,100L266,290L357,258L292,68Z" fill="rgb(0, 0, 14)" fill-opacity="0.50" filter="url(#g0.6)"></path><path d="M89,193L241,193L241,283L89,283Z" fill="rgb(255, 255, 255)" fill-opacity="0.50" filter="url(#g0.6)"></path><path d="M-3,118L71,118L71,276L-3,276Z" fill="rgb(0, 0, 0)" fill-opacity="0.50" filter="url(#g1)"></path><path d="M8,299L321,299L321,366L8,366Z" fill="rgb(255, 219, 51)" fill-opacity="0.50"></path><path d="M219,341L171,575L120,349L170,361Z" fill="rgb(0, 0, 0)" fill-opacity="0.50" filter="url(#g1)"></path><path d="M123,91L200,91L200,138L123,138Z" fill="rgb(255, 202, 0)" fill-opacity="0.50"></path><path d="M149,137L123,350L196,358L222,145Z" fill="rgb(240, 244, 255)" fill-opacity="0.50"></path><path d="M197,91L333,346L411,303L275,48Z" fill="rgb(0, 0, 5)" fill-opacity="0.50"></path><path d="M19,328L69,357L98,305L48,276Z" fill="rgb(255, 213, 0)" fill-opacity="0.50" filter="url(#g0.6)"></path><path d="M215,417L220,308L299,281L326,339Z" fill="rgb(255, 218, 0)" fill-opacity="0.50"></path><path d="M0,130L108,130L108,206L0,206Z" fill="rgb(0, 0, 0)" fill-opacity="0.50"></path><path d="M210,350L-72,445L-48,516L233,421Z" fill="rgb(0, 0, 0)" fill-opacity="0.50"></path><path d="M132,193L213,181L205,130L124,142Z" fill="rgb(255, 255, 255)" fill-opacity="0.50" filter="url(#g0.6)"></path><path d="M36,104L-74,310L-6,346L103,140Z" fill="rgb(0, 0, 0)" fill-opacity="0.50" filter="url(#g0.6)"></path><path d="M272,377L400,571L649,404L521,210Z" fill="rgb(0, 0, 0)" fill-opacity="0.50"></path><path d="M201,95L167,63L184,52L201,69Z" fill="rgb(255, 255, 255)" fill-opacity="0.50"></path><path d="M173,35L287,186L321,159L207,8Z" fill="rgb(13, 14, 14)" fill-opacity="0.50" filter="url(#g0.6)"></path><path d="M116,300L93,312L107,336L130,324Z" fill="rgb(0, 0, 0)" fill-opacity="0.50"></path><path d="M87,54L226,54L226,-137L87,-137Z" fill="rgb(40, 40, 40)" fill-opacity="0.50"></path><path d="M250,234L216,163L200,117L205,38Z" fill="rgb(1, 4, 7)" fill-opacity="0.50"></path><path d="M-10,432L-2,367L64,379L108,403Z" fill="rgb(0, 0, 8)" fill-opacity="0.50"></path><path d="M85,240L124,145L211,145L83,279Z" fill="rgb(255, 255, 255)" fill-opacity="0.50"></path><ellipse cx="93" cy="366" rx="31" ry="24" fill="rgb(255, 227, 0)" fill-opacity="0.50" transform="rotate(21.259967312432696,93,366)"></ellipse><ellipse cx="230" cy="236" rx="28" ry="17" fill="rgb(255, 255, 255)" fill-opacity="0.50" transform="rotate(83.1265045983309,230,236)"></ellipse><path d="M247,189L267,189L267,295L247,295Z" fill="rgb(73, 84, 111)" fill-opacity="0.50"></path><ellipse cx="158" cy="43" rx="21" ry="27" fill="rgb(27, 27, 27)" fill-opacity="0.50" transform="rotate(19.981137134320065,158,43)"></ellipse><ellipse cx="256" cy="280" rx="31" ry="14" fill="rgb(24, 14, 0)" fill-opacity="0.50" transform="rotate(2.2672274260018743,256,280)"></ellipse><path d="M119,388L7,368L10,302L93,310Z" fill="rgb(255, 205, 6)" fill-opacity="0.50"></path><path d="M105,192L4,107L126,122L121,151Z" fill="rgb(0, 0, 0)" fill-opacity="0.50"></path><ellipse cx="76" cy="218" rx="1" ry="31" fill="rgb(255, 255, 255)" fill-opacity="0.50" transform="rotate(24.234279947308863,76,218)"></ellipse><ellipse cx="100" cy="303" rx="21" ry="14" fill="rgb(0, 0, 8)" fill-opacity="0.50" transform="rotate(57.24200188426129,100,303)"></ellipse><path d="M215,342L162,361L90,269L222,281Z" fill="rgb(229, 234, 255)" fill-opacity="0.50"></path><path d="M-8,319L2,127L71,235L45,283Z" fill="rgb(0, 0, 5)" fill-opacity="0.50"></path><path d="M230,196L256,256L111,173L202,126Z" fill="rgb(255, 255, 255)" fill-opacity="0.50"></path><path d="M105,293L125,206L219,211L219,328Z" fill="rgb(226, 225, 222)" fill-opacity="0.50"></path><ellipse cx="263" cy="238" rx="20" ry="6" fill="rgb(240, 242, 242)" fill-opacity="0.50" transform="rotate(79.54386338674959,263,238)"></ellipse><path d="M127,315L108,334L59,256L114,298Z" fill="rgb(0, 0, 18)" fill-opacity="0.50"></path><path d="M211,386L120,664L224,698L315,420Z" fill="rgb(0, 0, 26)" fill-opacity="0.50"></path><path d="M248,174L542,127L503,-111L209,-64Z" fill="rgb(0, 0, 0)" fill-opacity="0.50"></path><ellipse cx="182" cy="84" rx="15" ry="9" fill="rgb(0, 0, 1)" fill-opacity="0.50" transform="rotate(84.35013653877176,182,84)"></ellipse><path d="M38,374L26,410L149,446L161,410Z" fill="rgb(0, 0, 9)" fill-opacity="0.50"></path><path d="M234,398L216,333L233,272L297,357Z" fill="rgb(255, 188, 1)" fill-opacity="0.50"></path><ellipse cx="140" cy="373" rx="16" ry="18" fill="rgb(0, 0, 5)" fill-opacity="0.50" transform="rotate(35.57454854983582,140,373)"></ellipse><ellipse cx="136" cy="72" rx="16" ry="9" fill="rgb(255, 255, 255)" fill-opacity="0.50" transform="rotate(49.3032054993538,136,72)"></ellipse><path d="M207,109L159,151L113,115L151,85Z" fill="rgb(244, 172, 0)" fill-opacity="0.50"></path><path d="M227,294L307,294L307,353L227,353Z" fill="rgb(255, 195, 15)" fill-opacity="0.50"></path><path d="M152,95L143,58L162,55L173,52Z" fill="rgb(0, 0, 0)" fill-opacity="0.50"></path><path d="M277,370L248,422L372,487L401,435Z" fill="rgb(0, 0, 0)" fill-opacity="0.50"></path><path d="M45,0L120,0L120,154L45,154Z" fill="rgb(0, 0, 1)" fill-opacity="0.50"></path><ellipse cx="95" cy="265" rx="23" ry="14" fill="rgb(255, 255, 255)" fill-opacity="0.50" transform="rotate(26.495013241639775,95,265)"></ellipse><path d="M7,321L53,274L70,274L94,315Z" fill="rgb(255, 205, 11)" fill-opacity="0.50"></path><ellipse cx="253" cy="269" rx="15" ry="17" fill="rgb(0, 0, 11)" fill-opacity="0.50" transform="rotate(0.869733996944182,253,269)"></ellipse><path d="M236,163L196,104L224,22L234,79Z" fill="rgb(48, 48, 46)" fill-opacity="0.50"></path><path d="M301,277L275,260L226,240L271,250Z" fill="rgb(255, 255, 255)" fill-opacity="0.50"></path><path d="M232,25L327,345L397,323L302,3Z" fill="rgb(0, 0, 0)" fill-opacity="0.50"></path><path d="M219,295L223,295L223,336L219,336Z" fill="rgb(0, 0, 21)" fill-opacity="0.50"></path><path d="M283,366L303,354L422,326L206,451Z" fill="rgb(0, 0, 5)" fill-opacity="0.50"></path><path d="M188,391L176,606L355,616L367,401Z" fill="rgb(0, 2, 7)" fill-opacity="0.50"></path><ellipse cx="131" cy="139" rx="13" ry="3" fill="rgb(255, 255, 255)" fill-opacity="0.50" transform="rotate(54.01821778409273,131,139)"></ellipse><path d="M159,360L135,354L112,332L171,319Z" fill="rgb(232, 237, 255)" fill-opacity="0.50"></path><path d="M59,378L-149,340L-164,429L43,467Z" fill="rgb(0, 0, 4)" fill-opacity="0.50"></path><ellipse cx="129" cy="54" rx="15" ry="7" fill="rgb(41, 41, 41)" fill-opacity="0.50" transform="rotate(9.686213228733974,129,54)"></ellipse><path d="M38,293L-172,273L140,91L60,171Z" fill="rgb(0, 0, 0)" fill-opacity="0.50"></path><ellipse cx="186" cy="65" rx="16" ry="7" fill="rgb(255, 255, 255)" fill-opacity="0.50" transform="rotate(32.9361800358907,186,65)"></ellipse><path d="M185,132L165,145L141,142Z" fill="rgb(40, 31, 0)" fill-opacity="0.50"></path><path d="M297,358L256,298L295,279L324,343Z" fill="rgb(255, 198, 18)" fill-opacity="0.50"></path><path d="M107,390L6,446L-7,345L27,390Z" fill="rgb(0, 0, 4)" fill-opacity="0.50"></path><path d="M138,365L209,350L227,305L200,420Z" fill="rgb(0, 1, 13)" fill-opacity="0.50"></path><ellipse cx="228" cy="374" rx="18" ry="14" fill="rgb(255, 214, 10)" fill-opacity="0.50" transform="rotate(63.395599058008564,228,374)"></ellipse><path d="M8,357L43,375L84,292L49,274Z" fill="rgb(255, 193, 17)" fill-opacity="0.50"></path><path d="M212,153L202,119L272,168L224,181Z" fill="rgb(24, 26, 31)" fill-opacity="0.50"></path><ellipse cx="215" cy="195" rx="54" ry="14" fill="rgb(255, 255, 255)" fill-opacity="0.50" transform="rotate(60.16591863838987,215,195)"></ellipse><path d="M106,62L163,-34L229,40L172,59Z" fill="rgb(39, 39, 39)" fill-opacity="0.50"></path><path d="M86,237L78,214L92,189L103,193Z" fill="rgb(0, 0, 0)" fill-opacity="0.50"></path><path d="M84,253L96,211L132,132L179,180Z" fill="rgb(255, 255, 255)" fill-opacity="0.50"></path><path d="M217,163L192,210L119,152L167,143Z" fill="rgb(255, 255, 255)" fill-opacity="0.50"></path><ellipse cx="137" cy="319" rx="33" ry="12" fill="rgb(231, 232, 239)" fill-opacity="0.50" transform="rotate(87.54502181507348,137,319)"></ellipse><ellipse cx="128" cy="69" rx="5" ry="14" fill="rgb(255, 255, 255)" fill-opacity="0.50" transform="rotate(38.600091091331855,128,69)"></ellipse><path d="M121,108L157,85L206,114L161,143Z" fill="rgb(246, 190, 1)" fill-opacity="0.50"></path><path d="M134,311L81,273L91,221L106,280Z" fill="rgb(255, 255, 255)" fill-opacity="0.50"></path><path d="M166,127L198,105L181,122Z" fill="rgb(19, 23, 33)" fill-opacity="0.50"></path><ellipse cx="195" cy="366" rx="18" ry="9" fill="rgb(42, 43, 43)" fill-opacity="0.50" transform="rotate(7.640135087161927,195,366)"></ellipse><ellipse cx="108" cy="344" rx="30" ry="6" fill="rgb(255, 193, 0)" fill-opacity="0.50" transform="rotate(54.39300108192797,108,344)"></ellipse><ellipse cx="290" cy="241" rx="35" ry="9" fill="rgb(39, 44, 50)" fill-opacity="0.50" transform="rotate(79.18247524756852,290,241)"></ellipse><path d="M-3,384L-6,255L10,331L10,340Z" fill="rgb(0, 0, 31)" fill-opacity="0.50"></path><ellipse cx="322" cy="312" rx="19" ry="11" fill="rgb(0, 0, 13)" fill-opacity="0.50" transform="rotate(58.24624899540888,322,312)"></ellipse><ellipse cx="223" cy="271" rx="5" ry="17" fill="rgb(253, 255, 255)" fill-opacity="0.50" transform="rotate(53.52648569901185,223,271)"></ellipse><path d="M115,344L93,311L58,251L127,316Z" fill="rgb(16, 21, 35)" fill-opacity="0.50"></path><ellipse cx="215" cy="59" rx="19" ry="18" fill="rgb(33, 32, 33)" fill-opacity="0.50" transform="rotate(80.50029157703449,215,59)"></ellipse><path d="M250,189L260,205L236,178L237,175Z" fill="rgb(255, 255, 255)" fill-opacity="0.50"></path><path d="M266,249L268,226L287,258L291,264Z" fill="rgb(0, 4, 20)" fill-opacity="0.50"></path><path d="M241,432L287,363L330,342L339,410Z" fill="rgb(0, 0, 2)" fill-opacity="0.50"></path><path d="M233,387L263,391L277,299L247,295Z" fill="rgb(254, 192, 19)" fill-opacity="0.50"></path><path d="M127,373L44,375L6,311L94,314Z" fill="rgb(255, 187, 16)" fill-opacity="0.50"></path><ellipse cx="54" cy="263" rx="26" ry="8" fill="rgb(7, 14, 29)" fill-opacity="0.50" transform="rotate(20.313981637255843,54,263)"></ellipse><ellipse cx="109" cy="88" rx="26" ry="10" fill="rgb(21, 20, 16)" fill-opacity="0.50" transform="rotate(61.20625813996294,109,88)"></ellipse><path d="M12,113L47,136L224,-125L189,-148Z" fill="rgb(0, 0, 0)" fill-opacity="0.50"></path><path d="M117,85L126,63L129,103Z" fill="rgb(255, 255, 255)" fill-opacity="0.50"></path><ellipse cx="62" cy="262" rx="20" ry="7" fill="rgb(26, 29, 36)" fill-opacity="0.50" transform="rotate(50.50264992569222,62,262)"></ellipse><path d="M143,202L184,202L184,357L143,357Z" fill="rgb(229, 228, 229)" fill-opacity="0.50"></path><ellipse cx="141" cy="91" rx="3" ry="11" fill="rgb(35, 26, 1)" fill-opacity="0.50" transform="rotate(71.12764836172205,141,91)"></ellipse><path d="M16,371L4,362L18,311L45,374Z" fill="rgb(255, 200, 20)" fill-opacity="0.50"></path><ellipse cx="240" cy="290" rx="17" ry="4" fill="rgb(255, 212, 2)" fill-opacity="0.50" transform="rotate(67.1017460074076,240,290)"></ellipse><path d="M76,253L76,223L85,238L84,263Z" fill="rgb(0, 0, 0)" fill-opacity="0.50"></path><path d="M138,76L142,94L125,90L131,74Z" fill="rgb(0, 0, 0)" fill-opacity="0.50"></path><path d="M288,279L286,270L273,251L292,268Z" fill="rgb(254, 255, 255)" fill-opacity="0.50"></path><ellipse cx="153" cy="366" rx="5" ry="22" fill="rgb(28, 30, 36)" fill-opacity="0.50" transform="rotate(76.27090408428559,153,366)"></ellipse><path d="M81,271L78,270L68,251L71,223Z" fill="rgb(255, 255, 255)" fill-opacity="0.50"></path><path d="M249,256L146,177L219,171L246,230Z" fill="rgb(255, 255, 255)" fill-opacity="0.50"></path><ellipse cx="170" cy="80" rx="7" ry="8" fill="rgb(255, 255, 255)" fill-opacity="0.50" transform="rotate(15.076807500371954,170,80)"></ellipse><ellipse cx="39" cy="299" rx="7" ry="19" fill="rgb(255, 195, 19)" fill-opacity="0.50" transform="rotate(64.67395960406135,39,299)"></ellipse><ellipse cx="101" cy="376" rx="14" ry="20" fill="rgb(255, 192, 19)" fill-opacity="0.50" transform="rotate(86.76978376869184,101,376)"></ellipse><path d="M261,216L259,247L242,224Z" fill="rgb(0, 0, 0)" fill-opacity="0.50"></path><ellipse cx="307" cy="283" rx="18" ry="4" fill="rgb(0, 0, 20)" fill-opacity="0.50" transform="rotate(13.254419301876318,307,283)"></ellipse><ellipse cx="314" cy="342" rx="6" ry="16" fill="rgb(252, 189, 24)" fill-opacity="0.50" transform="rotate(37.73753456446825,314,342)"></ellipse><ellipse cx="155" cy="103" rx="16" ry="19" fill="rgb(244, 188, 15)" fill-opacity="0.50" transform="rotate(77.83564562159751,155,103)"></ellipse><path d="M266,256L259,253L260,202L267,230Z" fill="rgb(255, 255, 255)" fill-opacity="0.50"></path><path d="M161,74L118,50L116,27L187,32Z" fill="rgb(30, 30, 30)" fill-opacity="0.50"></path><ellipse cx="109" cy="67" rx="10" ry="27" fill="rgb(10, 10, 10)" fill-opacity="0.50" transform="rotate(47.00784308221066,109,67)"></ellipse><path d="M128,379L91,396L130,479L167,462Z" fill="rgb(11, 11, 12)" fill-opacity="0.50"></path><path d="M305,1L259,173L377,204L423,32Z" fill="rgb(0, 0, 0)" fill-opacity="0.50"></path><path d="M140,60L150,83L122,68Z" fill="rgb(255, 255, 255)" fill-opacity="0.50"></path><path d="M276,225L237,172L234,124L275,181Z" fill="rgb(32, 34, 37)" fill-opacity="0.50"></path><ellipse cx="127" cy="127" rx="20" ry="1" fill="rgb(0, 0, 17)" fill-opacity="0.50" transform="rotate(40.124177187521845,127,127)"></ellipse><ellipse cx="137" cy="318" rx="11" ry="22" fill="rgb(232, 233, 233)" fill-opacity="0.50" transform="rotate(2.54298978942193,137,318)"></ellipse><ellipse cx="139" cy="132" rx="16" ry="5" fill="rgb(141, 110, 2)" fill-opacity="0.50" transform="rotate(45.751230621146746,139,132)"></ellipse><ellipse cx="109" cy="271" rx="20" ry="16" fill="rgb(233, 232, 233)" fill-opacity="0.50" transform="rotate(75.65531957861035,109,271)"></ellipse><ellipse cx="156" cy="381" rx="8" ry="34" fill="rgb(0, 0, 0)" fill-opacity="0.50" transform="rotate(84.84667728458204,156,381)"></ellipse><path d="M162,83L167,62L188,56L169,87Z" fill="rgb(255, 255, 255)" fill-opacity="0.50"></path><path d="M198,352L190,319L224,275L215,332Z" fill="rgb(240, 243, 255)" fill-opacity="0.50"></path><path d="M51,223L-41,412L111,-78L112,122Z" fill="rgb(0, 0, 0)" fill-opacity="0.50"></path><ellipse cx="23" cy="281" rx="17" ry="20" fill="rgb(0, 0, 8)" fill-opacity="0.50" transform="rotate(48.1336527046846,23,281)"></ellipse><path d="M219,302L221,335L230,270Z" fill="rgb(0, 0, 11)" fill-opacity="0.50"></path><path d="M123,143L105,151L121,41L119,105Z" fill="rgb(42, 42, 41)" fill-opacity="0.50"></path><path d="M276,26L315,321L544,289L505,-5Z" fill="rgb(0, 0, 0)" fill-opacity="0.50"></path><path d="M129,120L112,101L139,125Z" fill="rgb(24, 27, 25)" fill-opacity="0.50"></path><ellipse cx="208" cy="394" rx="27" ry="14" fill="rgb(0, 0, 0)" fill-opacity="0.50" transform="rotate(36.13975857446279,208,394)"></ellipse><path d="M203,86L192,54L189,106Z" fill="rgb(255, 255, 255)" fill-opacity="0.50"></path><path d="M191,102L212,107L181,93Z" fill="rgb(0, 1, 19)" fill-opacity="0.50"></path><ellipse cx="253" cy="279" rx="20" ry="11" fill="rgb(21, 25, 30)" fill-opacity="0.50" transform="rotate(48.2826663188924,253,279)"></ellipse><path d="M180,75L171,79L179,97L188,93Z" fill="rgb(0, 0, 6)" fill-opacity="0.50"></path><ellipse cx="235" cy="290" rx="5" ry="15" fill="rgb(255, 205, 5)" fill-opacity="0.50" transform="rotate(10.199223920162162,235,290)"></ellipse><ellipse cx="219" cy="360" rx="6" ry="13" fill="rgb(255, 185, 3)" fill-opacity="0.50" transform="rotate(14.282079736368267,219,360)"></ellipse></svg> 