<?xml version="1.0" encoding="UTF-8" standalone="no"?> <svg xmlns="http://www.w3.org/2000/svg" xmlns:xlink="http://www.w3.org/1999/xlink" xmlns:serif="http://www.serif.com/" width="100%" height="100%" viewBox="0 0 169 169" version="1.1" xml:space="preserve" style="fill-rule:evenodd;clip-rule:evenodd;stroke-linejoin:round;stroke-miterlimit:2;"> <g id="Artboard1" transform="matrix(1,0,0,1,-2.52889,-4.95386)"> <rect x="2.529" y="4.954" width="168.736" height="168.736" style="fill:none;"></rect> <g transform="matrix(0.964937,0,0,0.964937,6.96879,2.75847)"> <g> <g transform="matrix(0.898821,0,0,0.898821,6.65765,8.41077)"> <path d="M17.38,108.171L18.139,20.029L158.256,31.477L90.188,173.107L17.38,108.171Z" style="fill:rgb(0,26,0);fill-opacity:0.5;fill-rule:nonzero;"></path> </g> <g transform="matrix(0.898821,0,0,0.898821,6.65765,8.41077)"> <path d="M144.3,128L163.5,64.8L38.5,146.7L86.3,178.3L144.3,128Z" style="fill-opacity:0.5;fill-rule:nonzero;"></path> </g> <g transform="matrix(0.898821,0,0,0.898821,6.65765,8.41077)"> <path d="M19,113L153.5,18.5L76.5,4.1L8,28.3L19,113Z" style="fill:rgb(0,82,0);fill-opacity:0.5;fill-rule:nonzero;"></path> </g> <g transform="matrix(0.898821,0,0,0.898821,6.65765,8.41077)"> <path d="M40.7,147.9L76.1,172.4L80.5,98.4L9.7,84L40.7,147.9Z" style="fill-opacity:0.5;fill-rule:nonzero;"></path> </g> <g transform="matrix(0.898821,0,0,0.898821,6.65765,8.41077)"> <path d="M157.9,95.7L87.7,80.9L118,9L162.4,32L157.9,95.7Z" style="fill:rgb(0,105,0);fill-opacity:0.5;fill-rule:nonzero;"></path> </g> <g transform="matrix(0.898821,0,0,0.898821,6.65765,8.41077)"> <path d="M124.6,152.4L156.6,97.6L91.4,96.3L85.6,177L124.6,152.4Z" style="fill:rgb(0,18,0);fill-opacity:0.5;fill-rule:nonzero;"></path> </g> <g transform="matrix(0.898821,0,0,0.898821,6.65765,8.41077)"> <path d="M87.7,3.6L77.7,84.5L11.7,87.9L6,49.3L87.7,3.6Z" style="fill:rgb(0,63,0);fill-opacity:0.5;fill-rule:nonzero;"></path> </g> <g transform="matrix(0.898821,0,0,0.898821,6.65765,8.41077)"> <path d="M89.3,175.6L76.6,95L19.8,115L60.1,165L89.3,175.6Z" style="fill-opacity:0.5;fill-rule:nonzero;"></path> </g> <g transform="matrix(0.898821,0,0,0.898821,6.65765,8.41077)"> <path d="M40.2,12.9L83,2.6L150.3,19.4L147.7,123.6L40.2,12.9Z" style="fill:rgb(0,101,0);fill-opacity:0.5;fill-rule:nonzero;"></path> </g> <g transform="matrix(0.898821,0,0,0.898821,6.65765,8.41077)"> <path d="M130.5,145.2L105.4,167.5L91,95L157,98L130.5,145.2Z" style="fill:rgb(0,39,0);fill-opacity:0.5;fill-rule:nonzero;"></path> </g> <g transform="matrix(0.898821,0,0,0.898821,6.65765,8.41077)"> <path d="M89.3,54.9L91.7,82.5L94.5,84.9L143.4,79.5L89.3,54.9Z" style="fill:rgb(0,48,0);fill-opacity:0.5;fill-rule:nonzero;"></path> </g> <g transform="matrix(0.898821,0,0,0.898821,6.65765,8.41077)"> <path d="M62.2,81.6L110.5,95.2L58.9,94.7L54.9,90.1L62.2,81.6Z" style="fill:white;fill-opacity:0.5;fill-rule:nonzero;"></path> </g> <g transform="matrix(0.898821,0,0,0.898821,6.65765,8.41077)"> <path d="M47.2,153.8L60.4,64.8L7.2,64.1L28,128.6L47.2,153.8Z" style="fill:rgb(0,25,0);fill-opacity:0.5;fill-rule:nonzero;"></path> </g> <g transform="matrix(0.898821,0,0,0.898821,6.65765,8.41077)"> <path d="M152.3,105.3L84,121L162,45.7L161.2,77.3L152.3,105.3Z" style="fill:rgb(3,65,0);fill-opacity:0.5;fill-rule:nonzero;"></path> </g> <g transform="matrix(0.898821,0,0,0.898821,6.65765,8.41077)"> <path d="M24.7,122.5L78.1,52.7L79,83L11.8,87.5L24.7,122.5Z" style="fill:rgb(0,35,0);fill-opacity:0.5;fill-rule:nonzero;"></path> </g> <g transform="matrix(0.898821,0,0,0.898821,6.65765,8.41077)"> <path d="M7.9,53.6L133.7,14.4L88.7,3.4L12.6,24.5L7.9,53.6Z" style="fill:rgb(4,106,1);fill-opacity:0.5;fill-rule:nonzero;"></path> </g> <g transform="matrix(0.898821,0,0,0.898821,6.65765,8.41077)"> <path d="M75.4,174.5L93.5,175.2L128,146.2L32.5,86.2L75.4,174.5Z" style="fill:rgb(0,10,0);fill-opacity:0.5;fill-rule:nonzero;"></path> </g> <g transform="matrix(0.898821,0,0,0.898821,6.65765,8.41077)"> <path d="M115,90.9L91,84.9L56.4,84.4L58.8,96.6L115,90.9Z" style="fill:rgb(250,248,250);fill-opacity:0.5;fill-rule:nonzero;"></path> </g> <g transform="matrix(0.898821,0,0,0.898821,6.65765,8.41077)"> <path d="M106.5,55.2L13.5,23.9L8.2,40L9.9,84.4L106.5,55.2Z" style="fill:rgb(4,66,2);fill-opacity:0.5;fill-rule:nonzero;"></path> </g> <g transform="matrix(0.898821,0,0,0.898821,6.65765,8.41077)"> <path d="M31.1,92.9L78.7,96.9L73.9,133.4L9.8,79.4L31.1,92.9Z" style="fill:rgb(0,44,0);fill-opacity:0.5;fill-rule:nonzero;"></path> </g> <g transform="matrix(0.898821,0,0,0.898821,6.65765,8.41077)"> <path d="M163,57L22.7,17L94.5,4.7L153,20.7L163,57Z" style="fill:rgb(13,117,10);fill-opacity:0.5;fill-rule:nonzero;"></path> </g> <g transform="matrix(0.898821,0,0,0.898821,6.65765,8.41077)"> <path d="M84.9,119.7L90.4,114.7L79.1,59.2L79.9,112.4L84.9,119.7Z" style="fill:rgb(250,249,250);fill-opacity:0.5;fill-rule:nonzero;"></path> </g> <g transform="matrix(0.898821,0,0,0.898821,6.65765,8.41077)"> <path d="M112.7,161.3L25.8,125.1L50.4,156.3L67.7,168.2L112.7,161.3Z" style="fill-opacity:0.5;fill-rule:nonzero;"></path> </g> <g transform="matrix(0.898821,0,0,0.898821,6.65765,8.41077)"> <path d="M80,64.9L87.1,117.6L90.8,92.9L90.2,64.5L80,64.9Z" style="fill:rgb(254,250,254);fill-opacity:0.5;fill-rule:nonzero;"></path> </g> <g transform="matrix(0.898821,0,0,0.898821,6.65765,8.41077)"> <path d="M69.5,5.6L157.5,88.6L28.5,39.4L17.5,20.6L69.5,5.6Z" style="fill:rgb(9,88,7);fill-opacity:0.5;fill-rule:nonzero;"></path> </g> <g transform="matrix(0.898821,0,0,0.898821,6.65765,8.41077)"> <path d="M90.6,108.6L135,139L152,109.8L162.7,57.6L90.6,108.6Z" style="fill:rgb(6,57,5);fill-opacity:0.5;fill-rule:nonzero;"></path> </g> <g transform="matrix(0.898821,0,0,0.898821,6.65765,8.41077)"> <path d="M136.9,133.3L99.7,96.3L89.7,96.1L110.2,163.9L136.9,133.3Z" style="fill:rgb(1,24,0);fill-opacity:0.5;fill-rule:nonzero;"></path> </g> <g transform="matrix(0.898821,0,0,0.898821,6.65765,8.41077)"> <path d="M39,142.4L19,112.3L9,73.1L8.4,44.8L39,142.4Z" style="fill:rgb(0,22,0);fill-opacity:0.5;fill-rule:nonzero;"></path> </g> <g transform="matrix(0.898821,0,0,0.898821,6.65765,8.41077)"> <path d="M75.3,85L110.4,84.3L113.1,92.7L107.7,95.4L75.3,85Z" style="fill:rgb(255,251,254);fill-opacity:0.5;fill-rule:nonzero;"></path> </g> <g transform="matrix(0.898821,0,0,0.898821,6.65765,8.41077)"> <path d="M134.1,109L110.7,84L88.9,84.1L113,49L134.1,109Z" style="fill:rgb(7,64,4);fill-opacity:0.5;fill-rule:nonzero;"></path> </g> <g transform="matrix(0.898821,0,0,0.898821,6.65765,8.41077)"> <path d="M11,83.5L71,122.2L54.7,87.2L71.6,80L11,83.5Z" style="fill:rgb(5,42,3);fill-opacity:0.5;fill-rule:nonzero;"></path> </g> <g transform="matrix(0.898821,0,0,0.898821,6.65765,8.41077)"> <path d="M79.1,83.7L42.1,84.4L7.6,58L77.7,63.8L79.1,83.7Z" style="fill:rgb(5,59,3);fill-opacity:0.5;fill-rule:nonzero;"></path> </g> <g transform="matrix(0.898821,0,0,0.898821,6.65765,8.41077)"> <path d="M126,149.4L67,167.1L79,175.1L102,169.3L126,149.4Z" style="fill:rgb(2,0,2);fill-opacity:0.5;fill-rule:nonzero;"></path> </g> <g transform="matrix(0.898821,0,0,0.898821,6.65765,8.41077)"> <path d="M20.8,96.7L74.3,95.4L79.5,96.2L78.2,146.8L20.8,96.7Z" style="fill:rgb(3,31,2);fill-opacity:0.5;fill-rule:nonzero;"></path> </g> <g transform="matrix(0.898821,0,0,0.898821,6.65765,8.41077)"> <path d="M82.8,4L33.6,15.3L162,41.4L115,8.8L82.8,4Z" style="fill:rgb(13,115,11);fill-opacity:0.5;fill-rule:nonzero;"></path> </g> <g transform="matrix(0.898821,0,0,0.898821,6.65765,8.41077)"> <path d="M151.3,18.6L144.384,117.106L162,63.1L159,29.6L151.3,18.6Z" style="fill:rgb(9,105,7);fill-opacity:0.5;fill-rule:nonzero;"></path> </g> <g transform="matrix(0.898821,0,0,0.898821,6.65765,8.41077)"> <path d="M80.7,135.4L157.7,89.4L146.2,121.2L77.2,118.3L80.7,135.4Z" style="fill:rgb(4,44,3);fill-opacity:0.5;fill-rule:nonzero;"></path> </g> <g transform="matrix(0.898821,0,0,0.898821,6.65765,8.41077)"> <path d="M85.3,61.2L89.9,68.5L90.6,114L79.1,106L85.3,61.2Z" style="fill:rgb(242,242,242);fill-opacity:0.5;fill-rule:nonzero;"></path> </g> <g transform="matrix(0.898821,0,0,0.898821,6.65765,8.41077)"> <path d="M17.4,107.2L119.4,154.3L58.6,162.5L36.1,140.5L17.4,107.2Z" style="fill:rgb(2,7,1);fill-opacity:0.5;fill-rule:nonzero;"></path> </g> <g transform="matrix(0.898821,0,0,0.898821,6.65765,8.41077)"> <path d="M23.2,121.9L107.7,160.9L87.9,175.7L66.2,168.5L23.2,121.9Z" style="fill:rgb(1,1,1);fill-opacity:0.5;fill-rule:nonzero;"></path> </g> <g transform="matrix(0.898821,0,0,0.898821,6.65765,8.41077)"> <path d="M131,94.4L87,118.5L91.1,123.5L91.8,96.3L131,94.4Z" style="fill:rgb(4,50,3);fill-opacity:0.5;fill-rule:nonzero;"></path> </g> <g transform="matrix(0.898821,0,0,0.898821,6.65765,8.41077)"> <path d="M148.6,19.2L100.6,6.1L160.4,43.5L158.3,26L148.6,19.2Z" style="fill:rgb(14,128,12);fill-opacity:0.5;fill-rule:nonzero;"></path> </g> <g transform="matrix(0.898821,0,0,0.898821,6.65765,8.41077)"> <path d="M81.6,64L78.3,94.7L88.6,61.4L83.6,60.9L81.6,64Z" style="fill:rgb(242,241,241);fill-opacity:0.5;fill-rule:nonzero;"></path> </g> </g> </g> </g> </svg> 