<?xml version="1.0" encoding="UTF-8" standalone="no"?> <svg xmlns="http://www.w3.org/2000/svg" xmlns:xlink="http://www.w3.org/1999/xlink" xmlns:serif="http://www.serif.com/" width="100%" height="100%" viewBox="0 0 178 177" version="1.1" xml:space="preserve" style="fill-rule:evenodd;clip-rule:evenodd;stroke-linejoin:round;stroke-miterlimit:2;"> <g id="Artboard1" transform="matrix(1,0,0,1,-0.629092,-0.806607)"> <rect x="0.629" y="0.807" width="177.654" height="176.068" style="fill:none;"></rect> <g transform="matrix(0.924181,-0.239378,0.241117,0.930893,-15.0597,23.187)"> <path d="M93.3,176.6L5.2,65.2L47.7,163.6L166.2,115.7L93.3,176.6Z" style="fill-opacity:0.5;fill-rule:nonzero;"></path> <path d="M87.5,13.5L176,70.7L50.5,27.4L9.7,112.8L87.5,13.5Z" style="fill:rgb(0,0,68);fill-opacity:0.5;fill-rule:nonzero;"></path> <path d="M117.2,16.5L169.4,92.5L116.4,177.7L142.2,89.7L117.2,16.5Z" style="fill:rgb(0,0,84);fill-opacity:0.5;fill-rule:nonzero;"></path> <path d="M18.2,140.2L141.5,145.8L52.4,167L27.9,31L18.2,140.2Z" style="fill-opacity:0.5;fill-rule:nonzero;"></path> <path d="M34.4,154.8L106,93.2L44.7,43.7L85.3,92.4L34.4,154.8Z" style="fill:rgb(0,0,38);fill-opacity:0.5;fill-rule:nonzero;"></path> <path d="M132.3,55.6L133.9,18.6L34.5,65.8L49.3,19.2L132.3,55.6Z" style="fill:rgb(14,0,113);fill-opacity:0.5;fill-rule:nonzero;"></path> <path d="M42.8,166L63.5,119.7L88,181.2L116.5,139.8L42.8,166Z" style="fill-opacity:0.5;fill-rule:nonzero;"></path> <path d="M161,83.2L171.3,87.5L168.5,104.5L74.9,93.5L161,83.2Z" style="fill:rgb(11,0,96);fill-opacity:0.5;fill-rule:nonzero;"></path> <path d="M23.9,138.8L61.2,132.8L5.6,95.3L45.1,60.3L23.9,138.8Z" style="fill-opacity:0.5;fill-rule:nonzero;"></path> <path d="M164,133.8L142.1,98.4L131,169.6L97.5,150.1L164,133.8Z" style="fill:rgb(0,0,47);fill-opacity:0.5;fill-rule:nonzero;"></path> <path d="M35.2,107.6L46.2,21.6L96.9,40.7L17.3,49.8L35.2,107.6Z" style="fill:rgb(21,0,92);fill-opacity:0.5;fill-rule:nonzero;"></path> <path d="M119.2,41.3L155.6,106.8L117.6,160L160.8,52.8L119.2,41.3Z" style="fill:rgb(34,0,115);fill-opacity:0.5;fill-rule:nonzero;"></path> <path d="M47,42L90.8,104.6L96.5,94.1L50.3,33.8L47,42Z" style="fill:rgb(16,0,91);fill-opacity:0.5;fill-rule:nonzero;"></path> <path d="M79.8,96L94,95.3L49.2,157.2L45.8,146.6L79.8,96Z" style="fill:rgb(0,0,14);fill-opacity:0.5;fill-rule:nonzero;"></path> <path d="M3.5,89.6L44,73L19.6,127.2L102.6,175.7L3.5,89.6Z" style="fill:rgb(0,0,8);fill-opacity:0.5;fill-rule:nonzero;"></path> <path d="M93,11L56,39.9L138,47.6L153.4,94L93,11Z" style="fill:rgb(59,0,145);fill-opacity:0.5;fill-rule:nonzero;"></path> <path d="M76.4,160.3L87.2,179.3L91.6,145.5L31.4,133.3L76.4,160.3Z" style="fill-opacity:0.5;fill-rule:nonzero;"></path> <path d="M125.5,131L145.2,104.6L128.7,167.2L101.4,146L125.5,131Z" style="fill:rgb(11,0,44);fill-opacity:0.5;fill-rule:nonzero;"></path> <path d="M130.6,47L137.7,29.1L126.2,19.5L87.2,41L130.6,47Z" style="fill:rgb(59,0,141);fill-opacity:0.5;fill-rule:nonzero;"></path> <path d="M113.8,97.9L177.5,94.2L116.2,87.7L85.8,90.3L113.8,97.9Z" style="fill:rgb(25,0,95);fill-opacity:0.5;fill-rule:nonzero;"></path> <path d="M16.8,53.7L17.8,62.1L36.8,82.1L59.8,42.6L16.8,53.7Z" style="fill:rgb(32,0,86);fill-opacity:0.5;fill-rule:nonzero;"></path> <path d="M172.8,88.5L147,75.3L158,140.3L129.3,134.3L172.8,88.5Z" style="fill:rgb(47,0,114);fill-opacity:0.5;fill-rule:nonzero;"></path> <path d="M18.9,136.5L16.5,123.8L41.3,117.1L64,138.4L18.9,136.5Z" style="fill-opacity:0.5;fill-rule:nonzero;"></path> <path d="M61.5,124L68.3,153.8L53.8,168.7L41,156L61.5,124Z" style="fill-opacity:0.5;fill-rule:nonzero;"></path> <path d="M122.5,49.8L145.4,76L163,58.9L156.4,47.6L122.5,49.8Z" style="fill:rgb(48,0,136);fill-opacity:0.5;fill-rule:nonzero;"></path> <path d="M9.7,85L37.7,78.9L37.5,116.2L5.8,96.4L9.7,85Z" style="fill:rgb(20,0,57);fill-opacity:0.5;fill-rule:nonzero;"></path> <path d="M92.3,10.4L104.9,37.4L68.1,45.4L82.3,13.8L92.3,10.4Z" style="fill:rgb(47,0,129);fill-opacity:0.5;fill-rule:nonzero;"></path> <path d="M118.8,164.9L111.1,140.5L133.1,124.7L135.3,162.3L118.8,164.9Z" style="fill:rgb(23,0,53);fill-opacity:0.5;fill-rule:nonzero;"></path> <path d="M48.6,44.6L43,24L75.4,66.2L89.4,103L48.6,44.6Z" style="fill:rgb(46,0,109);fill-opacity:0.5;fill-rule:nonzero;"></path> <path d="M113.1,153.7L82.1,173.8L73.1,141.1L46.5,135.1L113.1,153.7Z" style="fill:rgb(0,0,3);fill-opacity:0.5;fill-rule:nonzero;"></path> <path d="M101,98.2L169.4,87.7L80.5,89.1L43.5,30.6L101,98.2Z" style="fill:rgb(40,0,103);fill-opacity:0.5;fill-rule:nonzero;"></path> <path d="M45.7,21.3L60.3,22.5L76,38.7L43.4,63.7L45.7,21.3Z" style="fill:rgb(55,0,121);fill-opacity:0.5;fill-rule:nonzero;"></path> <path d="M125.5,130L142,107.5L163.8,127L158.6,138.3L125.5,130Z" style="fill:rgb(47,0,100);fill-opacity:0.5;fill-rule:nonzero;"></path> <path d="M46.8,138L57,166.3L43.8,160L99.8,86.6L46.8,138Z" style="fill:rgb(3,0,27);fill-opacity:0.5;fill-rule:nonzero;"></path> <path d="M163.3,90.1L147.1,67.8L138.1,116.5L172,98L163.3,90.1Z" style="fill:rgb(57,0,127);fill-opacity:0.5;fill-rule:nonzero;"></path> <path d="M22.7,47.7L52,50.7L39.9,76.3L17.4,61.4L22.7,47.7Z" style="fill:rgb(31,0,84);fill-opacity:0.5;fill-rule:nonzero;"></path> <path d="M124.2,20.7L101.2,36.6L128.8,59.6L136.4,26.4L124.2,20.7Z" style="fill:rgb(63,0,139);fill-opacity:0.5;fill-rule:nonzero;"></path> <path d="M37.4,103L9.8,101.7L12.8,83.7L52,131.7L37.4,103Z" style="fill:rgb(5,0,27);fill-opacity:0.5;fill-rule:nonzero;"></path> </g> </g> </svg> 