<?xml version="1.0" encoding="UTF-8" standalone="no"?> <svg xmlns="http://www.w3.org/2000/svg" xmlns:xlink="http://www.w3.org/1999/xlink" xmlns:serif="http://www.serif.com/" width="100%" height="100%" viewBox="0 0 183 183" version="1.1" xml:space="preserve" style="fill-rule:evenodd;clip-rule:evenodd;stroke-linejoin:round;stroke-miterlimit:2;"> <g id="Artboard1" transform="matrix(1,0,0,1,0.581169,1.5916)"> <rect x="-0.581" y="-1.592" width="182.19" height="182.19" style="fill:none;"></rect> <g transform="matrix(0.9788,0,0,0.978132,5.71473,1.09791)"> <g> <path d="M62.1,10.2L43.1,69.9L45.2,165.7L-0.2,75.5L62.1,10.2Z" style="fill:rgb(21,21,21);fill-opacity:0.5;fill-rule:nonzero;"></path> <path d="M142.6,156.3L165.2,125.3L27.6,149.3L86.7,176.8L142.6,156.3Z" style="fill:rgb(26,26,26);fill-opacity:0.5;fill-rule:nonzero;"></path> <path d="M32.5,27.2L86,41.7L164.8,55.5L110,7.5L32.5,27.2Z" style="fill-opacity:0.5;fill-rule:nonzero;"></path> <path d="M126,140L161,44.3L172.3,102.5L164.5,124.1L126,140Z" style="fill:rgb(21,21,21);fill-opacity:0.5;fill-rule:nonzero;"></path> <path d="M80,168.6L123,62.8L100,58.3L78.6,10.7L80,168.6Z" style="fill:rgb(44,44,44);fill-opacity:0.5;fill-rule:nonzero;"></path> <path d="M142,23.2L82.6,6.2L30.9,30.4L9.9,62.6L142,23.2Z" style="fill:rgb(30,30,30);fill-opacity:0.5;fill-rule:nonzero;"></path> <path d="M30.7,152.5L10.7,122.9L5.8,84.3L64.4,146.3L30.7,152.5Z" style="fill:rgb(56,56,56);fill-opacity:0.5;fill-rule:nonzero;"></path> <path d="M122.3,61.8L112,58.4L34,90L117.5,126L122.3,61.8Z" style="fill:rgb(65,65,65);fill-opacity:0.5;fill-rule:nonzero;"></path> <path d="M158.3,45L139,26.2L132,77.2L170.5,78L158.3,45Z" style="fill:rgb(12,12,12);fill-opacity:0.5;fill-rule:nonzero;"></path> <g transform="matrix(0.981518,0,0,0.987031,2.34725,1.60299)"> <path d="M56.7,111.3L57.4,59.3L127,122.6L58.6,123.6L56.7,111.3Z" style="fill:rgb(76,76,76);fill-opacity:0.5;fill-rule:nonzero;"></path> </g> <path d="M65.4,173L26.4,144L98,131L112.7,173L65.4,173Z" style="fill:rgb(71,71,71);fill-opacity:0.5;fill-rule:nonzero;"></path> <path d="M73.5,8.8L174.6,88.8L127.6,18.4L107.5,11.2L73.5,8.8Z" style="fill:rgb(22,22,22);fill-opacity:0.5;fill-rule:nonzero;"></path> <path d="M116.2,90.3L165.8,59.5L172.8,100.7L135.2,104L116.2,90.3Z" style="fill:rgb(46,46,46);fill-opacity:0.5;fill-rule:nonzero;"></path> <path d="M75.1,8.6L40.6,23.2L17,55.7L117.4,38.4L75.1,8.6Z" style="fill:rgb(48,48,48);fill-opacity:0.5;fill-rule:nonzero;"></path> <path d="M107.5,120.8L7.9,86L120.5,83.7L120.5,124.5L107.5,120.8Z" style="fill:rgb(74,74,74);fill-opacity:0.5;fill-rule:nonzero;"></path> <path d="M78.8,54.3L119.1,62.6L118.3,93.6L81.8,24L78.8,54.3Z" style="fill:rgb(37,37,37);fill-opacity:0.5;fill-rule:nonzero;"></path> <path d="M46,162.8L36.8,136.2L110.3,136.4L65.7,170.1L46,162.8Z" style="fill:rgb(74,74,74);fill-opacity:0.5;fill-rule:nonzero;"></path> <path d="M53,38.4L17.7,134.8L5.3,88.9L13.2,55.8L53,38.4Z" style="fill:rgb(73,73,73);fill-opacity:0.5;fill-rule:nonzero;"></path> <path d="M125.8,166.3L94.3,175L44.3,136.9L159.9,135.9L125.8,166.3Z" style="fill:rgb(75,75,75);fill-opacity:0.5;fill-rule:nonzero;"></path> <path d="M118.3,14L95.3,9.3L162.4,59.8L150.7,34.8L118.3,14Z" style="fill:rgb(20,20,20);fill-opacity:0.5;fill-rule:nonzero;"></path> <path d="M118.3,123L77.8,64L55.6,119.1L58.7,124.1L118.3,123Z" style="fill:rgb(77,77,77);fill-opacity:0.5;fill-rule:nonzero;"></path> <path d="M45.2,20.6L68.8,10.8L131.3,47.6L51.6,47.1L45.2,20.6Z" style="fill:rgb(42,42,42);fill-opacity:0.5;fill-rule:nonzero;"></path> <path d="M133.4,63.7L133.3,142.9L159.9,133.7L169.7,112.6L133.4,63.7Z" style="fill:rgb(65,65,65);fill-opacity:0.5;fill-rule:nonzero;"></path> <path d="M170.2,102.9L106.7,26.9L165.1,60.9L170.9,78.3L170.2,102.9Z" style="fill:rgb(39,39,39);fill-opacity:0.5;fill-rule:nonzero;"></path> <path d="M41.6,161.6L32.3,76.8L78.3,92.2L7.3,112.9L41.6,161.6Z" style="fill:rgb(77,77,77);fill-opacity:0.5;fill-rule:nonzero;"></path> <path d="M49.7,18.5L168.3,66.7L100.3,10L89.3,8.3L49.7,18.5Z" style="fill:rgb(31,31,31);fill-opacity:0.5;fill-rule:nonzero;"></path> <path d="M44.5,122.4L44.3,96.6L18.8,136.4L70.3,172.9L44.5,122.4Z" style="fill:rgb(78,78,78);fill-opacity:0.5;fill-rule:nonzero;"></path> <path d="M42,161.2L45.6,29.2L5.5,99L17.6,134.3L42,161.2Z" style="fill:rgb(76,76,76);fill-opacity:0.5;fill-rule:nonzero;"></path> <path d="M120.2,60.4L125.5,60.4L97.5,60.4L119.2,114L120.2,60.4Z" style="fill:rgb(56,56,56);fill-opacity:0.5;fill-rule:nonzero;"></path> <path d="M147.9,150.3L113.9,171.3L117.7,136L164.2,126.1L147.9,150.3Z" style="fill:rgb(78,78,78);fill-opacity:0.5;fill-rule:nonzero;"></path> <path d="M80,56.8L77.3,24.8L98.6,45.2L97.4,73.2L80,56.8Z" style="fill:rgb(46,46,46);fill-opacity:0.5;fill-rule:nonzero;"></path> <g transform="matrix(0.288761,-0.957401,0.957401,0.288761,54.542,160.495)"> <path d="M80,56.8L77.3,24.8L98.6,45.2L97.4,73.2L80,56.8Z" style="fill:rgb(46,46,46);fill-opacity:0.5;fill-rule:nonzero;"></path> </g> <path d="M61.3,59.8L100.1,60.4L135.3,102.5L65.3,81.7L61.3,59.8Z" style="fill:rgb(61,61,61);fill-opacity:0.5;fill-rule:nonzero;"></path> </g> </g> </g> </svg> 