<?xml version="1.0" encoding="UTF-8" standalone="no"?> <svg xmlns="http://www.w3.org/2000/svg" xmlns:xlink="http://www.w3.org/1999/xlink" xmlns:serif="http://www.serif.com/" width="100%" height="100%" viewBox="0 0 152 105" version="1.1" xml:space="preserve" style="fill-rule:evenodd;clip-rule:evenodd;stroke-linejoin:round;stroke-miterlimit:2;"> <g id="Artboard1" transform="matrix(1.07042,0,0,1.18713,-20.8621,-20.474)"> <rect x="19.49" y="17.247" width="141.656" height="87.801" style="fill:none;"></rect> <g transform="matrix(0.934216,0,0,0.842367,11.0583,16.7666)"> <g transform="matrix(-58.3519,10.6043,-5.87944,-32.3524,82.1566,54.9954)"> <circle cx="0" cy="0" r="1" style="fill:rgb(0,46,171);fill-opacity:0.5;"></circle> </g> <g transform="matrix(-46.5195,22.8905,-6.06511,-12.3259,98.7,66.4)"> <circle cx="0" cy="0" r="1" style="fill:rgb(0,34,123);fill-opacity:0.5;"></circle> </g> <g transform="matrix(29.0735,10.4876,-6.68024,18.5189,53.2,54.7)"> <circle cx="0" cy="0" r="1" style="fill:rgb(0,127,236);fill-opacity:0.5;"></circle> </g> <g transform="matrix(-0.30169,9.82365,-21.0066,-0.64512,84.9,38.1)"> <circle cx="0" cy="0" r="1" style="fill:rgb(215,255,255);fill-opacity:0.5;"></circle> </g> <g transform="matrix(-52.2791,17.6037,-2.10969,-6.2653,90.5,52.5)"> <circle cx="0" cy="0" r="1" style="fill:rgb(0,131,236);fill-opacity:0.5;"></circle> </g> <g transform="matrix(-22.4215,-10.8316,3.10594,-6.42932,112.8,30.3)"> <circle cx="0" cy="0" r="1" style="fill:rgb(0,137,235);fill-opacity:0.5;"></circle> </g> <g transform="matrix(13.9885,-15.9789,18.7381,16.404,47.7395,55.6412)"> <circle cx="0" cy="0" r="1" style="fill:rgb(0,122,215);fill-opacity:0.5;"></circle> </g> <g transform="matrix(-12.8316,3.41422,-0.843408,-3.16976,82.937,37.7548)"> <circle cx="0" cy="0" r="1" style="fill:rgb(0,121,217);fill-opacity:0.5;"></circle> </g> <g transform="matrix(3.28761,-14.7079,5.09354,1.13854,137.5,49.6)"> <circle cx="0" cy="0" r="1" style="fill:rgb(31,55,123);fill-opacity:0.5;"></circle> </g> <g transform="matrix(-38.1271,12.626,-1.1178,-3.37546,99.6,83.1)"> <circle cx="0" cy="0" r="1" style="fill:rgb(174,152,153);fill-opacity:0.5;"></circle> </g> <g transform="matrix(-34.556,21.2533,-3.23436,-5.25878,95.5,71)"> <circle cx="0" cy="0" r="1" style="fill:rgb(23,47,114);fill-opacity:0.5;"></circle> </g> <g transform="matrix(-1.5616,5.74763,-3.78843,-1.02929,99.5465,36.2909)"> <circle cx="0" cy="0" r="1" style="fill:white;fill-opacity:0.5;"></circle> </g> <g transform="matrix(21.3966,12.7005,-4.27054,7.1946,115,32.2)"> <circle cx="0" cy="0" r="1" style="fill:rgb(0,130,221);fill-opacity:0.5;"></circle> </g> <g transform="matrix(-2.56543,10.5238,-36.1791,-8.81952,58.7109,52.082)"> <circle cx="0" cy="0" r="1" style="fill:rgb(0,125,221);fill-opacity:0.5;"></circle> </g> <g transform="matrix(0.7229,-3.8352,2.5997,0.49002,65.5,37.2)"> <circle cx="0" cy="0" r="1" style="fill:white;fill-opacity:0.5;"></circle> </g> <g transform="matrix(15.0747,1.23936,-0.1891,2.30018,80.1,42.5)"> <circle cx="0" cy="0" r="1" style="fill:rgb(255,255,249);fill-opacity:0.5;"></circle> </g> <g transform="matrix(1.47397,-2.89374,9.23664,4.70481,84,36.1)"> <circle cx="0" cy="0" r="1" style="fill:rgb(0,109,213);fill-opacity:0.5;"></circle> </g> <g transform="matrix(-1.62674,-5.00126,34.7612,-11.3066,106,46.6)"> <circle cx="0" cy="0" r="1" style="fill:rgb(0,128,223);fill-opacity:0.5;"></circle> </g> <g transform="matrix(32.6111,-11.1653,0.875818,2.55805,54.7114,33.1041)"> <circle cx="0" cy="0" r="1" style="fill:rgb(2,141,226);fill-opacity:0.5;"></circle> </g> <g transform="matrix(22.1422,-20.0589,4.78145,5.27806,136.6,69.7)"> <circle cx="0" cy="0" r="1" style="fill:rgb(222,212,207);fill-opacity:0.5;"></circle> </g> <g transform="matrix(6.35507,0.99612,-0.30731,1.9606,84.4,30.1)"> <circle cx="0" cy="0" r="1" style="fill:white;fill-opacity:0.5;"></circle> </g> <g transform="matrix(-4.6101,-7.92096,18.5753,-10.8111,68,76.5)"> <circle cx="0" cy="0" r="1" style="fill:rgb(39,79,182);fill-opacity:0.5;"></circle> </g> <g transform="matrix(-3.5072,-7.32009,12.1786,-5.835,115.267,66.5878)"> <circle cx="0" cy="0" r="1" style="fill:rgb(7,76,168);fill-opacity:0.5;"></circle> </g> <g transform="matrix(-2.7546,-2.72107,3.78178,-3.82839,69.2,34.5)"> <circle cx="0" cy="0" r="1" style="fill:rgb(255,255,248);fill-opacity:0.5;"></circle> </g> <g transform="matrix(-10.9695,-1.51934,0.1372,-0.99054,91,29.3)"> <circle cx="0" cy="0" r="1" style="fill:rgb(245,255,255);fill-opacity:0.5;"></circle> </g> <g transform="matrix(15.5666,0.21861,-0.03421,2.43624,82.2,43.7)"> <circle cx="0" cy="0" r="1" style="fill:rgb(230,232,236);fill-opacity:0.5;"></circle> </g> <g transform="matrix(1.30306,3.17409,-10.5615,4.33583,93.8,78.2)"> <circle cx="0" cy="0" r="1" style="fill:rgb(51,49,54);fill-opacity:0.5;"></circle> </g> <g transform="matrix(7.45544,-2.90984,6.97798,17.8786,49,70.7)"> <circle cx="0" cy="0" r="1" style="fill:rgb(10,116,214);fill-opacity:0.5;"></circle> </g> <g transform="matrix(2.33954,5.38058,-16.6006,7.21814,117.5,38.1)"> <circle cx="0" cy="0" r="1" style="fill:rgb(0,134,223);fill-opacity:0.5;"></circle> </g> <g transform="matrix(-0.85352,-2.11428,13.3002,-5.3692,115.5,68.3)"> <circle cx="0" cy="0" r="1" style="fill:rgb(7,113,218);fill-opacity:0.5;"></circle> </g> <g transform="matrix(-17.1575,-20.766,3.68293,-3.04294,40,82.8)"> <circle cx="0" cy="0" r="1" style="fill:rgb(224,215,209);fill-opacity:0.5;"></circle> </g> <g transform="matrix(1.72675,2.10968,-6.8156,5.5785,98.1,40.2)"> <circle cx="0" cy="0" r="1" style="fill:rgb(247,244,243);fill-opacity:0.5;"></circle> </g> <g transform="matrix(-30.195,5.768,-1.02362,-5.35854,112.6,59.3)"> <circle cx="0" cy="0" r="1" style="fill:rgb(26,52,138);fill-opacity:0.5;"></circle> </g> <g transform="matrix(-0.284557,-3.06743,16.8802,-1.56593,94.4048,23.2525)"> <circle cx="0" cy="0" r="1" style="fill:rgb(0,134,222);fill-opacity:0.5;"></circle> </g> <g transform="matrix(-0.04953,-4.72917,32.8401,-0.34391,71.1,51)"> <circle cx="0" cy="0" r="1" style="fill:rgb(0,133,222);fill-opacity:0.5;"></circle> </g> <g transform="matrix(-1.53985,-3.96997,6.29207,-2.44053,132.647,59.2256)"> <circle cx="0" cy="0" r="1" style="fill:rgb(63,70,88);fill-opacity:0.5;"></circle> </g> <g transform="matrix(8.5522,-1.18157,0.16613,1.20243,77.5,38.8)"> <circle cx="0" cy="0" r="1" style="fill:rgb(2,121,208);fill-opacity:0.5;"></circle> </g> <g transform="matrix(-2.04857,8.21637,-7.16715,-1.78697,55.2,38.4)"> <circle cx="0" cy="0" r="1" style="fill:rgb(0,140,225);fill-opacity:0.5;"></circle> </g> <g transform="matrix(1.36915,-7.38727,14.2059,2.63291,129.238,38.3922)"> <circle cx="0" cy="0" r="1" style="fill:rgb(9,108,211);fill-opacity:0.5;"></circle> </g> <g transform="matrix(0.29772,1.7984,-10.9162,1.80717,86.8,34.9)"> <circle cx="0" cy="0" r="1" style="fill:rgb(18,132,215);fill-opacity:0.5;"></circle> </g> <g transform="matrix(2.32798,-2.80406,3.41123,2.83205,88.5401,39.1843)"> <circle cx="0" cy="0" r="1" style="fill:rgb(19,132,215);fill-opacity:0.5;"></circle> </g> <g transform="matrix(1.05708,2.53947,-33.8176,14.0769,110.419,54.0332)"> <circle cx="0" cy="0" r="1" style="fill:rgb(27,63,181);fill-opacity:0.5;"></circle> </g> <g transform="matrix(5.90383,6.30897,-1.38137,1.29267,105.654,72.0303)"> <circle cx="0" cy="0" r="1" style="fill:rgb(9,96,219);fill-opacity:0.5;"></circle> </g> <g transform="matrix(4.38917,2.4112,-3.40306,6.19466,114.9,61.4)"> <circle cx="0" cy="0" r="1" style="fill:rgb(27,45,109);fill-opacity:0.5;"></circle> </g> <g transform="matrix(-23.8998,21.7472,-1.67498,-1.84078,126.548,72.2421)"> <circle cx="0" cy="0" r="1" style="fill:rgb(187,181,191);fill-opacity:0.5;"></circle> </g> <g transform="matrix(-13.8574,5.97005,-1.14613,-2.66034,116,72.2)"> <circle cx="0" cy="0" r="1" style="fill:rgb(52,80,154);fill-opacity:0.5;"></circle> </g> <g transform="matrix(1.48174,-1.82328,3.25418,2.6446,101.48,34.0366)"> <circle cx="0" cy="0" r="1" style="fill:rgb(252,250,242);fill-opacity:0.5;"></circle> </g> <g transform="matrix(-14.2556,-14.9176,0.746767,-0.713626,44.1843,80.4918)"> <circle cx="0" cy="0" r="1" style="fill:rgb(113,117,161);fill-opacity:0.5;"></circle> </g> <g transform="matrix(4.81183,-12.1056,26.1278,10.3855,49.8,52.4)"> <circle cx="0" cy="0" r="1" style="fill:rgb(3,127,221);fill-opacity:0.5;"></circle> </g> <g transform="matrix(0.6312,1.16797,-10.935,5.90947,77.3,87)"> <circle cx="0" cy="0" r="1" style="fill:rgb(82,78,86);fill-opacity:0.5;"></circle> </g> <g transform="matrix(9.9621,-10.919,4.18243,3.81589,68.8,82.3)"> <circle cx="0" cy="0" r="1" style="fill:rgb(51,74,149);fill-opacity:0.5;"></circle> </g> <g transform="matrix(25.4498,8.69886,-1.197,3.50202,114,29.3)"> <circle cx="0" cy="0" r="1" style="fill:rgb(0,135,223);fill-opacity:0.5;"></circle> </g> <g transform="matrix(0.290702,-0.956814,5.25188,1.59564,95.4309,37.9323)"> <circle cx="0" cy="0" r="1" style="fill:rgb(244,249,253);fill-opacity:0.5;"></circle> </g> <g transform="matrix(-1.68828,1.72873,-5.94863,-5.80942,121.2,59.6)"> <circle cx="0" cy="0" r="1" style="fill:rgb(18,92,198);fill-opacity:0.5;"></circle> </g> <g transform="matrix(0.477159,0.878817,-6.9214,3.75801,72.0563,31.6842)"> <circle cx="0" cy="0" r="1" style="fill:rgb(248,254,251);fill-opacity:0.5;"></circle> </g> <g transform="matrix(0.66408,-2.70276,4.24535,1.0431,97.8,37.4)"> <circle cx="0" cy="0" r="1" style="fill:rgb(254,248,246);fill-opacity:0.5;"></circle> </g> <g transform="matrix(-7.78028,-2.77043,0.59346,-1.66662,106.6,69.2)"> <circle cx="0" cy="0" r="1" style="fill:rgb(5,112,222);fill-opacity:0.5;"></circle> </g> <g transform="matrix(-0.66313,-3.04346,22.8629,-4.98151,88.4,92)"> <circle cx="0" cy="0" r="1" style="fill:rgb(221,219,220);fill-opacity:0.5;"></circle> </g> <g transform="matrix(-1.50735,1.5179,-4.00516,-3.9773,66.7,40.2)"> <circle cx="0" cy="0" r="1" style="fill:rgb(241,240,239);fill-opacity:0.5;"></circle> </g> <g transform="matrix(-12.4749,6.85814,-0.48175,-0.8763,116.8,73.2)"> <circle cx="0" cy="0" r="1" style="fill:rgb(61,65,130);fill-opacity:0.5;"></circle> </g> <g transform="matrix(-0.80207,1.48914,-4.13765,-2.22858,80.2,34.7)"> <circle cx="0" cy="0" r="1" style="fill:rgb(0,114,214);fill-opacity:0.5;"></circle> </g> <g transform="matrix(9.95954,-2.51911,0.5544,2.19184,99.8,80.9)"> <circle cx="0" cy="0" r="1" style="fill:rgb(143,132,142);fill-opacity:0.5;"></circle> </g> <g transform="matrix(-3.88294,2.57006,-14.972,-22.6202,39,63.3)"> <circle cx="0" cy="0" r="1" style="fill:rgb(11,115,214);fill-opacity:0.5;"></circle> </g> <g transform="matrix(-1.6093,-2.3866,14.0468,-9.4718,116,79)"> <circle cx="0" cy="0" r="1" style="fill:rgb(180,178,192);fill-opacity:0.5;"></circle> </g> <g transform="matrix(-14.7035,10.9596,-2.23695,-3.00109,128.39,49.4147)"> <circle cx="0" cy="0" r="1" style="fill:rgb(37,63,156);fill-opacity:0.5;"></circle> </g> <g transform="matrix(-0.4147,-0.90996,14.9725,-6.82336,90.3,80.3)"> <circle cx="0" cy="0" r="1" style="fill:rgb(32,41,62);fill-opacity:0.5;"></circle> </g> <g transform="matrix(0.363251,0.931691,-37.779,14.7294,85.8195,60.4288)"> <circle cx="0" cy="0" r="1" style="fill:rgb(33,120,225);fill-opacity:0.5;"></circle> </g> <g transform="matrix(5.88538,3.74632,-6.63016,10.4158,112.2,40.2)"> <circle cx="0" cy="0" r="1" style="fill:rgb(0,129,222);fill-opacity:0.5;"></circle> </g> <g transform="matrix(-1.17774,1.76781,-4.70098,-3.13185,99.7,33.2)"> <circle cx="0" cy="0" r="1" style="fill:rgb(237,242,243);fill-opacity:0.5;"></circle> </g> <g transform="matrix(-3.71302,2.57101,-0.56928,-0.822144,76.4801,39.3059)"> <circle cx="0" cy="0" r="1" style="fill:rgb(0,111,211);fill-opacity:0.5;"></circle> </g> <g transform="matrix(-1.90557,-5.06968,18.5062,-6.95603,74.1103,72.9164)"> <circle cx="0" cy="0" r="1" style="fill:rgb(40,72,169);fill-opacity:0.5;"></circle> </g> <g transform="matrix(1.13472,3.62956,-4.3167,1.34955,68.2,35.9)"> <circle cx="0" cy="0" r="1" style="fill:rgb(246,248,246);fill-opacity:0.5;"></circle> </g> <g transform="matrix(-2.02944,-8.42026,4.98297,-1.201,147.8,55.3)"> <circle cx="0" cy="0" r="1" style="fill:rgb(210,213,212);fill-opacity:0.5;"></circle> </g> <g transform="matrix(2.62272,4.28666,-15.6516,9.57618,50,39.3)"> <circle cx="0" cy="0" r="1" style="fill:rgb(1,134,223);fill-opacity:0.5;"></circle> </g> <g transform="matrix(-0.566406,0.824126,-10.7809,-7.4095,50.2232,89.3763)"> <circle cx="0" cy="0" r="1" style="fill:rgb(194,183,186);fill-opacity:0.5;"></circle> </g> <g transform="matrix(-18.7438,1.57396,-0.154002,-1.83396,93.6091,24.0766)"> <circle cx="0" cy="0" r="1" style="fill:rgb(0,132,223);fill-opacity:0.5;"></circle> </g> </g> </g> </svg> 