<?xml version="1.0" encoding="UTF-8" standalone="no"?> <svg xmlns="http://www.w3.org/2000/svg" xmlns:xlink="http://www.w3.org/1999/xlink" xmlns:serif="http://www.serif.com/" width="100%" height="100%" viewBox="0 0 164 129" version="1.1" xml:space="preserve" style="fill-rule:evenodd;clip-rule:evenodd;"> <g id="Artboard1" transform="matrix(0.727999,0,0,0.927122,14.0591,-37.3265)"> <rect x="-19.312" y="40.261" width="224.175" height="138.123" style="fill:none;"></rect> <g transform="matrix(8.41105e-17,1.07861,-1.37363,6.60456e-17,178,16.3313)"> <g transform="matrix(0.794248,0.607594,-0.607594,0.794248,58.2128,-25.1159)"> <ellipse cx="53" cy="22" rx="11" ry="9" style="fill:rgb(225,0,0);fill-opacity:0.5;"></ellipse> <circle cx="135" cy="64" r="9" style="fill:rgb(0,69,58);fill-opacity:0.5;"></circle> <ellipse cx="36" cy="57" rx="10" ry="9" style="fill:rgb(167,0,0);fill-opacity:0.5;"></ellipse> <circle cx="84" cy="108" r="9" style="fill:rgb(0,26,136);fill-opacity:0.5;"></circle> <circle cx="87" cy="10" r="9" style="fill:rgb(236,57,0);fill-opacity:0.5;"></circle> <ellipse cx="47" cy="94" rx="8" ry="9" style="fill:rgb(43,0,77);fill-opacity:0.5;"></ellipse> <ellipse cx="119" cy="98" rx="11" ry="9" style="fill:rgb(0,150,231);fill-opacity:0.5;"></ellipse> <ellipse cx="118" cy="30" rx="8" ry="10" style="fill:rgb(50,161,0);fill-opacity:0.5;"></ellipse> <ellipse cx="122" cy="64" rx="9" ry="12" style="fill:rgb(88,180,174);fill-opacity:0.5;"></ellipse> <ellipse cx="81" cy="98" rx="10" ry="11" style="fill:rgb(75,155,197);fill-opacity:0.5;"></ellipse> <ellipse cx="48" cy="56" rx="8" ry="12" style="fill:rgb(213,122,153);fill-opacity:0.5;"></ellipse> <ellipse cx="59" cy="27" rx="9" ry="14" style="fill:rgb(232,115,123);fill-opacity:0.5;"></ellipse> <ellipse cx="112" cy="91" rx="9" ry="12" style="fill:rgb(77,203,234);fill-opacity:0.5;"></ellipse> <ellipse cx="52" cy="86" rx="10" ry="11" style="fill:rgb(166,104,177);fill-opacity:0.5;"></ellipse> <ellipse cx="87" cy="22" rx="12" ry="9" style="fill:rgb(241,172,101);fill-opacity:0.5;"></ellipse> <ellipse cx="121" cy="99" rx="9" ry="7" style="fill:rgb(0,162,231);fill-opacity:0.5;"></ellipse> <ellipse cx="83" cy="110" rx="8" ry="7" style="fill:rgb(0,102,168);fill-opacity:0.5;"></ellipse> <circle cx="50" cy="22" r="8" style="fill:rgb(229,0,6);fill-opacity:0.5;"></circle> <ellipse cx="138" cy="62" rx="5" ry="8" style="fill:rgb(0,126,117);fill-opacity:0.5;"></ellipse> <ellipse cx="111" cy="37" rx="12" ry="10" style="fill:rgb(170,216,126);fill-opacity:0.5;"></ellipse> <ellipse cx="85" cy="6" rx="9" ry="5" style="fill:rgb(234,116,0);fill-opacity:0.5;"></ellipse> <circle cx="35" cy="57" r="8" style="fill:rgb(192,0,62);fill-opacity:0.5;"></circle> <ellipse cx="47" cy="42" rx="7" ry="15" style="fill:rgb(250,234,238);fill-opacity:0.5;"></ellipse> <circle cx="40" cy="70" r="8" style="fill:rgb(253,242,249);fill-opacity:0.5;"></circle> <ellipse cx="129" cy="66" rx="2" ry="9" style="fill:rgb(0,113,100);fill-opacity:0.5;"></ellipse> <circle cx="64" cy="88" r="2" style="fill:rgb(31,0,57);fill-opacity:0.5;"></circle> <ellipse cx="88" cy="90" rx="5" ry="4" style="fill:rgb(93,147,182);fill-opacity:0.5;"></ellipse> <ellipse cx="64" cy="32" rx="7" ry="10" style="fill:rgb(246,220,221);fill-opacity:0.5;"></ellipse> <ellipse cx="110" cy="92" rx="4" ry="6" style="fill:rgb(255,255,245);fill-opacity:0.5;"></ellipse> <circle cx="134" cy="49" r="3" style="fill:rgb(49,140,131);fill-opacity:0.5;"></circle> <ellipse cx="41" cy="34" rx="1" ry="3" style="fill:rgb(129,0,0);fill-opacity:0.5;"></ellipse> <ellipse cx="130" cy="85" rx="2" ry="4" style="fill:rgb(33,166,209);fill-opacity:0.5;"></ellipse> <ellipse cx="46" cy="47" rx="5" ry="2" style="fill:rgb(169,47,75);fill-opacity:0.5;"></ellipse> <ellipse cx="52" cy="53" rx="3" ry="2" style="fill:rgb(164,0,32);fill-opacity:0.5;"></ellipse> <ellipse cx="51" cy="23" rx="2" ry="3" style="fill:rgb(236,255,255);fill-opacity:0.5;"></ellipse> <ellipse cx="118" cy="36" rx="2" ry="14" style="fill:rgb(122,193,68);fill-opacity:0.5;"></ellipse> <ellipse cx="91" cy="107" rx="11" ry="2" style="fill:rgb(157,194,211);fill-opacity:0.5;"></ellipse> <ellipse cx="38" cy="72" rx="3" ry="2" style="fill:rgb(169,36,77);fill-opacity:0.5;"></ellipse> <ellipse cx="47" cy="83" rx="2" ry="9" style="fill:rgb(106,31,126);fill-opacity:0.5;"></ellipse> <ellipse cx="119" cy="67" rx="3" ry="2" style="fill:rgb(0,93,92);fill-opacity:0.5;"></ellipse> <ellipse cx="79" cy="95" rx="2" ry="8" style="fill:rgb(76,129,165);fill-opacity:0.5;"></ellipse> <circle cx="44" cy="95" r="6" style="fill:rgb(132,37,152);fill-opacity:0.5;"></circle> <ellipse cx="81" cy="102" rx="7" ry="2" style="fill:rgb(0,64,145);fill-opacity:0.5;"></ellipse> <circle cx="72" cy="11" r="3" style="fill:rgb(227,135,56);fill-opacity:0.5;"></circle> <ellipse cx="65" cy="22" rx="4" ry="2" style="fill:rgb(189,0,11);fill-opacity:0.5;"></ellipse> <ellipse cx="48" cy="59" rx="10" ry="2" style="fill:rgb(182,70,102);fill-opacity:0.5;"></ellipse> <ellipse cx="61" cy="103" rx="5" ry="2" style="fill:rgb(132,81,142);fill-opacity:0.5;"></ellipse> <circle cx="47" cy="64" r="2" style="fill:rgb(120,0,29);fill-opacity:0.5;"></circle> <ellipse cx="136" cy="64" rx="8" ry="7" style="fill:rgb(0,138,131);fill-opacity:0.5;"></ellipse> <ellipse cx="56" cy="83" rx="10" ry="4" style="fill:rgb(223,214,225);fill-opacity:0.5;"></ellipse> <ellipse cx="105" cy="97" rx="3" ry="2" style="fill:rgb(0,153,222);fill-opacity:0.5;"></ellipse> <circle cx="122" cy="75" r="2" style="fill:rgb(0,69,57);fill-opacity:0.5;"></circle> <ellipse cx="88" cy="15" rx="7" ry="3" style="fill:rgb(227,99,0);fill-opacity:0.5;"></ellipse> <ellipse cx="112" cy="40" rx="6" ry="3" style="fill:white;fill-opacity:0.5;"></ellipse> <ellipse cx="120" cy="97" rx="2" ry="3" style="fill:white;fill-opacity:0.5;"></ellipse> <circle cx="98" cy="106" r="2" style="fill:rgb(0,22,89);fill-opacity:0.5;"></circle> <ellipse cx="36" cy="57" rx="2" ry="3" style="fill:rgb(250,255,255);fill-opacity:0.5;"></ellipse> <ellipse cx="57" cy="39" rx="2" ry="4" style="fill:rgb(208,52,60);fill-opacity:0.5;"></ellipse> <ellipse cx="121" cy="56" rx="4" ry="2" style="fill:rgb(0,102,99);fill-opacity:0.5;"></ellipse> <ellipse cx="52" cy="65" rx="3" ry="2" style="fill:rgb(161,16,51);fill-opacity:0.5;"></ellipse> <circle cx="72" cy="95" r="2" style="fill:rgb(0,51,141);fill-opacity:0.5;"></circle> <ellipse cx="118" cy="29" rx="8" ry="9" style="fill:rgb(126,188,64);fill-opacity:0.5;"></ellipse> <ellipse cx="45" cy="55" rx="2" ry="7" style="fill:rgb(246,255,255);fill-opacity:0.5;"></ellipse> <circle cx="66" cy="31" r="2" style="fill:rgb(191,0,0);fill-opacity:0.5;"></circle> <ellipse cx="117" cy="61" rx="3" ry="2" style="fill:rgb(0,84,76);fill-opacity:0.5;"></ellipse> <ellipse cx="134" cy="63" rx="2" ry="3" style="fill:white;fill-opacity:0.5;"></ellipse> <circle cx="106" cy="24" r="7" style="fill:rgb(245,255,237);fill-opacity:0.5;"></circle> <ellipse cx="47" cy="93" rx="3" ry="2" style="fill:white;fill-opacity:0.5;"></ellipse> <ellipse cx="117" cy="64" rx="5" ry="3" style="fill:white;fill-opacity:0.5;"></ellipse> <ellipse cx="91" cy="20" rx="2" ry="11" style="fill:rgb(235,143,70);fill-opacity:0.5;"></ellipse> <ellipse cx="61" cy="36" rx="1" ry="3" style="fill:rgb(201,0,0);fill-opacity:0.5;"></ellipse> <ellipse cx="92" cy="105" rx="3" ry="4" style="fill:white;fill-opacity:0.5;"></ellipse> <ellipse cx="108" cy="20" rx="4" ry="2" style="fill:rgb(125,186,89);fill-opacity:0.5;"></ellipse> <ellipse cx="43" cy="26" rx="2" ry="9" style="fill:rgb(228,77,88);fill-opacity:0.5;"></ellipse> <ellipse cx="79" cy="95" rx="5" ry="2" style="fill:white;fill-opacity:0.5;"></ellipse> <ellipse cx="90" cy="96" rx="2" ry="3" style="fill:rgb(44,104,158);fill-opacity:0.5;"></ellipse> <circle cx="47" cy="46" r="2" style="fill:rgb(134,0,0);fill-opacity:0.5;"></circle> <ellipse cx="32" cy="61" rx="3" ry="6" style="fill:rgb(180,1,52);fill-opacity:0.5;"></ellipse> <ellipse cx="41" cy="49" rx="1" ry="2" style="fill:rgb(134,0,0);fill-opacity:0.5;"></ellipse> <ellipse cx="119" cy="58" rx="4" ry="2" style="fill:white;fill-opacity:0.5;"></ellipse> <ellipse cx="89" cy="110" rx="4" ry="3" style="fill:rgb(0,88,165);fill-opacity:0.5;"></ellipse> <ellipse cx="116" cy="30" rx="3" ry="2" style="fill:white;fill-opacity:0.5;"></ellipse> <ellipse cx="77" cy="14" rx="4" ry="5" style="fill:white;fill-opacity:0.5;"></ellipse> <ellipse cx="63" cy="85" rx="4" ry="5" style="fill:rgb(168,120,177);fill-opacity:0.5;"></ellipse> <ellipse cx="47" cy="19" rx="4" ry="6" style="fill:rgb(229,1,18);fill-opacity:0.5;"></ellipse> <circle cx="91" cy="20" r="4" style="fill:rgb(251,255,255);fill-opacity:0.5;"></circle> <ellipse cx="102" cy="93" rx="6" ry="3" style="fill:white;fill-opacity:0.5;"></ellipse> <circle cx="63" cy="25" r="3" style="fill:rgb(248,255,255);fill-opacity:0.5;"></circle> <ellipse cx="51" cy="76" rx="3" ry="10" style="fill:rgb(255,255,254);fill-opacity:0.5;"></ellipse> <circle cx="125" cy="73" r="2" style="fill:rgb(0,83,74);fill-opacity:0.5;"></circle> <ellipse cx="124" cy="102" rx="4" ry="6" style="fill:rgb(0,170,233);fill-opacity:0.5;"></ellipse> <circle cx="127" cy="95" r="3" style="fill:rgb(0,154,217);fill-opacity:0.5;"></circle> <ellipse cx="48" cy="61" rx="3" ry="2" style="fill:white;fill-opacity:0.5;"></ellipse> <ellipse cx="51" cy="100" rx="2" ry="3" style="fill:rgb(81,0,101);fill-opacity:0.5;"></ellipse> <ellipse cx="111" cy="19" rx="2" ry="10" style="fill:white;fill-opacity:0.5;"></ellipse> <ellipse cx="54" cy="100" rx="2" ry="6" style="fill:white;fill-opacity:0.5;"></ellipse> <ellipse cx="54" cy="92" rx="2" ry="3" style="fill:rgb(88,0,110);fill-opacity:0.5;"></ellipse> <ellipse cx="45" cy="89" rx="1" ry="8" style="fill:rgb(80,0,103);fill-opacity:0.5;"></ellipse> <ellipse cx="79" cy="91" rx="1" ry="4" style="fill:rgb(0,30,116);fill-opacity:0.5;"></ellipse> <ellipse cx="62" cy="38" rx="3" ry="2" style="fill:rgb(205,86,100);fill-opacity:0.5;"></ellipse> <ellipse cx="68" cy="85" rx="7" ry="2" style="fill:white;fill-opacity:0.5;"></ellipse> <ellipse cx="40" cy="57" rx="3" ry="7" style="fill:rgb(181,16,61);fill-opacity:0.5;"></ellipse> <ellipse cx="122" cy="62" rx="3" ry="2" style="fill:rgb(37,101,96);fill-opacity:0.5;"></ellipse> <ellipse cx="138" cy="58" rx="3" ry="5" style="fill:rgb(0,116,111);fill-opacity:0.5;"></ellipse> <ellipse cx="115" cy="80" rx="2" ry="3" style="fill:rgb(14,167,207);fill-opacity:0.5;"></ellipse> </g> <g transform="matrix(0.794248,0.607594,-0.607594,0.794248,58.1195,-25.8168)"> <g> <path d="M120.6,25C152.867,67.333 138.667,97.333 78,115" style="fill:none;fill-rule:nonzero;stroke:rgb(39,152,162);stroke-opacity:0.5;stroke-width:0.5px;"></path> <path d="M28.2,58.9C49.533,48.033 59.167,33.9 57.1,16.5" style="fill:none;fill-rule:nonzero;stroke:rgb(191,0,1);stroke-opacity:0.5;stroke-width:0.5px;"></path> <path d="M51.7,14.6C39.167,29.533 38.733,58.467 50.4,101.4" style="fill:none;fill-rule:nonzero;stroke:rgb(182,22,72);stroke-opacity:0.5;stroke-width:0.5px;"></path> <path d="M42.4,18C66.8,27.467 84.8,22.967 96.4,4.5" style="fill:none;fill-rule:nonzero;stroke:rgb(228,31,0);stroke-opacity:0.5;stroke-width:0.5px;"></path> <path d="M146.5,59.7C141.367,62.7 116.667,80.6 72.4,113.4" style="fill:none;fill-rule:nonzero;stroke:rgb(17,137,163);stroke-opacity:0.5;stroke-width:0.5px;"></path> <path d="M123.2,107.8C105.933,80.133 112,63.633 141.4,58.3" style="fill:none;fill-rule:nonzero;stroke:rgb(0,144,173);stroke-opacity:0.5;stroke-width:0.5px;"></path> <path d="M29,59.3C56.133,45.633 62.8,30.2 49,13" style="fill:none;fill-rule:nonzero;stroke:rgb(203,0,5);stroke-opacity:0.5;stroke-width:0.5px;"></path> <path d="M51.6,13.5C63.333,35.033 55.667,48.833 28.6,54.9" style="fill:none;fill-rule:nonzero;stroke:rgb(198,0,5);stroke-opacity:0.5;stroke-width:0.5px;"></path> <path d="M86,119.3C73.533,87.967 57.733,80.3 38.6,96.3" style="fill:none;fill-rule:nonzero;stroke:rgb(23,32,139);stroke-opacity:0.5;stroke-width:0.5px;"></path> <path d="M46.3,14.8C70.233,27.733 86.3,26.533 94.5,11.2" style="fill:none;fill-rule:nonzero;stroke:rgb(225,8,0);stroke-opacity:0.5;stroke-width:0.5px;"></path> <path d="M94.1,-15.5C94.967,21.1 79.2,32.1 46.8,17.5" style="fill:none;fill-rule:nonzero;stroke:rgb(234,36,0);stroke-opacity:0.5;stroke-width:0.5px;"></path> <path d="M45.9,107C51.433,70.067 46.1,51.9 29.9,52.5" style="fill:none;fill-rule:nonzero;stroke:rgb(140,0,78);stroke-opacity:0.5;stroke-width:0.5px;"></path> <path d="M117,55.8C128.333,59.067 137.333,61.8 144,64" style="fill:none;fill-rule:nonzero;stroke:rgb(0,36,19);stroke-opacity:0.5;stroke-width:0.5px;"></path> <path d="M140,54.8C142.2,64.8 136,71.667 121.4,75.4" style="fill:none;fill-rule:nonzero;stroke:rgb(0,54,35);stroke-opacity:0.5;stroke-width:0.5px;"></path> <path d="M38.8,94C67.267,85.067 83,98.9 86,135.5" style="fill:none;fill-rule:nonzero;stroke:rgb(15,37,140);stroke-opacity:0.5;stroke-width:0.5px;"></path> <path d="M123.9,21.3C113.033,48.767 118.2,65.333 139.4,71" style="fill:none;fill-rule:nonzero;stroke:rgb(16,139,45);stroke-opacity:0.5;stroke-width:0.5px;"></path> <path d="M46.5,16.6C46.5,21.933 51,30.233 60,41.5" style="fill:none;fill-rule:nonzero;stroke:rgb(206,0,0);stroke-opacity:0.5;stroke-width:0.5px;"></path> <path d="M132.1,34.8C83.1,1.267 51.567,11.1 37.5,64.3" style="fill:none;fill-rule:nonzero;stroke:rgb(199,110,62);stroke-opacity:0.5;stroke-width:0.5px;"></path> <path d="M56.4,66.7C53.067,66.567 43.8,63.767 28.6,58.3" style="fill:none;fill-rule:nonzero;stroke:rgb(141,0,0);stroke-opacity:0.5;stroke-width:0.5px;"></path> <path d="M57.3,62C39.1,56.067 29.167,57.4 27.5,66" style="fill:none;fill-rule:nonzero;stroke:rgb(161,0,11);stroke-opacity:0.5;stroke-width:0.5px;"></path> <path d="M92,92.3C89.133,105.367 86.233,113.967 83.3,118.1" style="fill:none;fill-rule:nonzero;stroke:rgb(0,0,111);stroke-opacity:0.5;stroke-width:0.5px;"></path> <path d="M49.9,103.5C43.233,101.5 43.233,92.533 49.9,76.6" style="fill:none;fill-rule:nonzero;stroke:rgb(32,0,69);stroke-opacity:0.5;stroke-width:0.5px;"></path> <path d="M144.8,67.5C108.133,80.167 85.967,96.167 78.3,115.5" style="fill:none;fill-rule:nonzero;stroke:rgb(14,123,153);stroke-opacity:0.5;stroke-width:0.5px;"></path> <path d="M143,59.1C116.533,81.5 109.533,97.567 122,107.3" style="fill:none;fill-rule:nonzero;stroke:rgb(0,135,156);stroke-opacity:0.5;stroke-width:0.5px;"></path> <path d="M40.3,98.4C105.433,123.133 137.833,109.167 137.5,56.5" style="fill:none;fill-rule:nonzero;stroke:rgb(62,137,184);stroke-opacity:0.5;stroke-width:0.5px;"></path> <path d="M90.7,3.8C62.1,16.267 46.667,24.333 44.4,28" style="fill:none;fill-rule:nonzero;stroke:rgb(236,53,0);stroke-opacity:0.5;stroke-width:0.5px;"></path> <path d="M56.4,13.6C32.533,42 27.067,62.833 40,76.1" style="fill:none;fill-rule:nonzero;stroke:rgb(214,37,63);stroke-opacity:0.5;stroke-width:0.5px;"></path> <path d="M115.5,20.3C119.7,54.833 129.467,71.2 144.8,69.4" style="fill:none;fill-rule:nonzero;stroke:rgb(29,149,72);stroke-opacity:0.5;stroke-width:0.5px;"></path> <path d="M89.3,117.7C84.767,108.233 83.967,98.267 86.9,87.8" style="fill:none;fill-rule:nonzero;stroke:rgb(0,33,129);stroke-opacity:0.5;stroke-width:0.5px;"></path> <path d="M41,21.4C46.733,20.733 55.033,26.967 65.9,40.1" style="fill:none;fill-rule:nonzero;stroke:rgb(216,0,0);stroke-opacity:0.5;stroke-width:0.5px;"></path> <path d="M78.9,116.9C82.833,100.233 99.9,95.5 130.1,102.7" style="fill:none;fill-rule:nonzero;stroke:rgb(0,129,208);stroke-opacity:0.5;stroke-width:0.5px;"></path> <path d="M91.1,4C89.7,30.333 74.1,37.267 44.3,24.8" style="fill:none;fill-rule:nonzero;stroke:rgb(235,76,24);stroke-opacity:0.5;stroke-width:0.5px;"></path> <path d="M71.7,26.2C57.567,16.467 47.833,16.9 42.5,27.5" style="fill:none;fill-rule:nonzero;stroke:rgb(227,0,0);stroke-opacity:0.5;stroke-width:0.5px;"></path> <path d="M73.4,91.5C75.067,109.833 82,116.433 94.2,111.3" style="fill:none;fill-rule:nonzero;stroke:rgb(0,46,143);stroke-opacity:0.5;stroke-width:0.5px;"></path> <path d="M129.2,108.3C84.667,86.767 57.167,84.167 46.7,100.5" style="fill:none;fill-rule:nonzero;stroke:rgb(37,105,188);stroke-opacity:0.5;stroke-width:0.5px;"></path> <path d="M145.7,65C125.7,68.867 115.367,69.567 114.7,67.1" style="fill:none;fill-rule:nonzero;stroke:rgb(0,82,71);stroke-opacity:0.5;stroke-width:0.5px;"></path> <path d="M126.2,105C114.333,87.533 113.667,60.533 124.2,24" style="fill:none;fill-rule:nonzero;stroke:rgb(30,171,120);stroke-opacity:0.5;stroke-width:0.5px;"></path> <path d="M58.5,42C47.5,24.333 45.433,14 52.3,11" style="fill:none;fill-rule:nonzero;stroke:rgb(213,0,0);stroke-opacity:0.5;stroke-width:0.5px;"></path> <path d="M77.3,-15.5C86.633,12.5 102.467,30.3 124.8,37.9" style="fill:none;fill-rule:nonzero;stroke:rgb(181,128,0);stroke-opacity:0.5;stroke-width:0.5px;"></path> <path d="M47.7,12.5C39.7,47.7 33.6,64.933 29.4,64.2" style="fill:none;fill-rule:nonzero;stroke:rgb(208,30,56);stroke-opacity:0.5;stroke-width:0.5px;"></path> <path d="M117.8,55C140.133,62.867 140.6,81.633 119.2,111.3" style="fill:none;fill-rule:nonzero;stroke:rgb(0,152,178);stroke-opacity:0.5;stroke-width:0.5px;"></path> <path d="M46.8,46.7C32.133,52.7 27.767,60.133 33.7,69" style="fill:none;fill-rule:nonzero;stroke:rgb(166,0,0);stroke-opacity:0.5;stroke-width:0.5px;"></path> <path d="M55.1,15.5C64.033,41.367 56.467,57.867 32.4,65" style="fill:none;fill-rule:nonzero;stroke:rgb(211,38,63);stroke-opacity:0.5;stroke-width:0.5px;"></path> <path d="M38.5,98C42.5,99.467 52.5,95.967 68.5,87.5" style="fill:none;fill-rule:nonzero;stroke:rgb(61,0,78);stroke-opacity:0.5;stroke-width:0.5px;"></path> <path d="M49.4,75.1C41.067,92.033 45.567,102.133 62.9,105.4" style="fill:none;fill-rule:nonzero;stroke:rgb(82,0,105);stroke-opacity:0.5;stroke-width:0.5px;"></path> <path d="M132.6,98.5C104.4,83.1 86.067,88.233 77.6,113.9" style="fill:none;fill-rule:nonzero;stroke:rgb(13,142,207);stroke-opacity:0.5;stroke-width:0.5px;"></path> <path d="M78.7,9.9C88.7,5.3 95.9,11.333 100.3,28" style="fill:none;fill-rule:nonzero;stroke:rgb(228,60,0);stroke-opacity:0.5;stroke-width:0.5px;"></path> <path d="M100.8,108C84.933,115.6 75.333,110.8 72,93.6" style="fill:none;fill-rule:nonzero;stroke:rgb(0,62,146);stroke-opacity:0.5;stroke-width:0.5px;"></path> <path d="M121.8,75.8C138,71.6 145.133,65.833 143.2,58.5" style="fill:none;fill-rule:nonzero;stroke:rgb(0,64,51);stroke-opacity:0.5;stroke-width:0.5px;"></path> <path d="M82,-15.5C88.4,-7.367 87,8.067 77.8,30.8" style="fill:none;fill-rule:nonzero;stroke:rgb(222,57,0);stroke-opacity:0.5;stroke-width:0.5px;"></path> <path d="M144.6,55.3C130.6,63.967 120.367,65.6 113.9,60.2" style="fill:none;fill-rule:nonzero;stroke:rgb(0,99,93);stroke-opacity:0.5;stroke-width:0.5px;"></path> <path d="M26.5,56.5C29.633,55.3 40.2,54.2 58.2,53.2" style="fill:none;fill-rule:nonzero;stroke:rgb(171,0,10);stroke-opacity:0.5;stroke-width:0.5px;"></path> <path d="M139,71.1C118.333,62.367 114.4,47.467 127.2,26.4" style="fill:none;fill-rule:nonzero;stroke:rgb(26,142,55);stroke-opacity:0.5;stroke-width:0.5px;"></path> <path d="M139.2,71.4C145.2,58.733 135.533,45.8 110.2,32.6" style="fill:none;fill-rule:nonzero;stroke:rgb(34,148,79);stroke-opacity:0.5;stroke-width:0.5px;"></path> <path d="M30.8,64.7C44.867,58.7 53.167,57.933 55.7,62.4" style="fill:none;fill-rule:nonzero;stroke:rgb(153,0,0);stroke-opacity:0.5;stroke-width:0.5px;"></path> <path d="M28.9,62.8C32.567,58.6 41.467,60.267 55.6,67.8" style="fill:none;fill-rule:nonzero;stroke:rgb(158,0,8);stroke-opacity:0.5;stroke-width:0.5px;"></path> <path d="M99.3,37.4C117.967,28.133 126.967,23.033 126.3,22.1" style="fill:none;fill-rule:nonzero;stroke:rgb(60,163,0);stroke-opacity:0.5;stroke-width:0.5px;"></path> <path d="M117.7,54.9C136.033,60.433 144.767,64.9 143.9,68.3" style="fill:none;fill-rule:nonzero;stroke:rgb(0,86,74);stroke-opacity:0.5;stroke-width:0.5px;"></path> <path d="M145.3,65.5C122.433,71.233 114.333,85.5 121,108.3" style="fill:none;fill-rule:nonzero;stroke:rgb(0,140,161);stroke-opacity:0.5;stroke-width:0.5px;"></path> <path d="M131,101.6C96.8,95.467 78.667,98.4 76.6,110.4" style="fill:none;fill-rule:nonzero;stroke:rgb(0,135,210);stroke-opacity:0.5;stroke-width:0.5px;"></path> <path d="M129.2,94.3C122.533,92.3 107.3,100.433 83.5,118.7" style="fill:none;fill-rule:nonzero;stroke:rgb(3,133,191);stroke-opacity:0.5;stroke-width:0.5px;"></path> <path d="M42.3,99.7C54.3,74.767 50.867,58.033 32,49.5" style="fill:none;fill-rule:nonzero;stroke:rgb(144,8,94);stroke-opacity:0.5;stroke-width:0.5px;"></path> <path d="M43,17.3C50,14.033 56.8,21.6 63.4,40" style="fill:none;fill-rule:nonzero;stroke:rgb(227,0,0);stroke-opacity:0.5;stroke-width:0.5px;"></path> <path d="M43.4,19.7C52.067,18.767 60.4,23.567 68.4,34.1" style="fill:none;fill-rule:nonzero;stroke:rgb(203,0,0);stroke-opacity:0.5;stroke-width:0.5px;"></path> <path d="M143.2,59.6C141.267,64 131.967,64.4 115.3,60.8" style="fill:none;fill-rule:nonzero;stroke:rgb(0,80,69);stroke-opacity:0.5;stroke-width:0.5px;"></path> <path d="M94.4,90.4C91.067,91.067 88.6,99.9 87,116.9" style="fill:none;fill-rule:nonzero;stroke:rgb(0,45,135);stroke-opacity:0.5;stroke-width:0.5px;"></path> <path d="M31.3,51.5C27.3,60.433 35.667,74.967 56.4,95.1" style="fill:none;fill-rule:nonzero;stroke:rgb(157,13,88);stroke-opacity:0.5;stroke-width:0.5px;"></path> <path d="M133.4,105C99.2,95.667 80.967,99.133 78.7,115.4" style="fill:none;fill-rule:nonzero;stroke:rgb(0,133,208);stroke-opacity:0.5;stroke-width:0.5px;"></path> <path d="M98.5,24.2C92.833,9.4 87.333,2.833 82,4.5" style="fill:none;fill-rule:nonzero;stroke:rgb(234,37,0);stroke-opacity:0.5;stroke-width:0.5px;"></path> <path d="M40.5,96.7C52.633,96.967 61.4,93.567 66.8,86.5" style="fill:none;fill-rule:nonzero;stroke:rgb(68,0,89);stroke-opacity:0.5;stroke-width:0.5px;"></path> <path d="M86.7,135.5C83.1,133.167 80.8,117.8 79.8,89.4" style="fill:none;fill-rule:nonzero;stroke:rgb(0,57,142);stroke-opacity:0.5;stroke-width:0.5px;"></path> <path d="M129,59.4C133.667,77.867 132.4,94.4 125.2,109" style="fill:none;fill-rule:nonzero;stroke:rgb(9,163,192);stroke-opacity:0.5;stroke-width:0.5px;"></path> <path d="M63.8,81.7C62.4,83.433 54.667,88.367 40.6,96.5" style="fill:none;fill-rule:nonzero;stroke:rgb(75,0,96);stroke-opacity:0.5;stroke-width:0.5px;"></path> <path d="M84.5,32.7C91.767,5.633 74.6,-10.433 33,-15.5" style="fill:none;fill-rule:nonzero;stroke:rgb(228,96,0);stroke-opacity:0.5;stroke-width:0.5px;"></path> <path d="M101.1,43.1C115.1,37.233 123.3,31.533 125.7,26" style="fill:none;fill-rule:nonzero;stroke:rgb(64,161,0);stroke-opacity:0.5;stroke-width:0.5px;"></path> <path d="M42.9,27C51.1,29.733 58.833,27.067 66.1,19" style="fill:none;fill-rule:nonzero;stroke:rgb(226,0,0);stroke-opacity:0.5;stroke-width:0.5px;"></path> <path d="M125.5,106.6C126.9,101.8 122.067,91.233 111,74.9" style="fill:none;fill-rule:nonzero;stroke:rgb(0,148,228);stroke-opacity:0.5;stroke-width:0.5px;"></path> <path d="M26.2,57.6C33.867,62.067 43.267,65 54.4,66.4" style="fill:none;fill-rule:nonzero;stroke:rgb(159,0,28);stroke-opacity:0.5;stroke-width:0.5px;"></path> <path d="M93.6,7C82.533,33.333 65.867,39.133 43.6,24.4" style="fill:none;fill-rule:nonzero;stroke:rgb(235,81,34);stroke-opacity:0.5;stroke-width:0.5px;"></path> <path d="M118.2,48C127.533,32.4 123.633,23.4 106.5,21" style="fill:none;fill-rule:nonzero;stroke:rgb(77,175,3);stroke-opacity:0.5;stroke-width:0.5px;"></path> <path d="M57.7,44.7C57.633,36.033 52.9,27.933 43.5,20.4" style="fill:none;fill-rule:nonzero;stroke:rgb(209,0,0);stroke-opacity:0.5;stroke-width:0.5px;"></path> <path d="M87.8,88.3C83.267,102.633 82.733,111.633 86.2,115.3" style="fill:none;fill-rule:nonzero;stroke:rgb(0,37,124);stroke-opacity:0.5;stroke-width:0.5px;"></path> <path d="M52,103C54.533,93.467 51,89.4 41.4,90.8" style="fill:none;fill-rule:nonzero;stroke:rgb(58,0,85);stroke-opacity:0.5;stroke-width:0.5px;"></path> <path d="M139.3,54.6C127.767,66.2 119.333,70.867 114,68.6" style="fill:none;fill-rule:nonzero;stroke:rgb(0,108,99);stroke-opacity:0.5;stroke-width:0.5px;"></path> <path d="M43.5,26.9C48.367,20.833 56.667,19.333 68.4,22.4" style="fill:none;fill-rule:nonzero;stroke:rgb(217,0,0);stroke-opacity:0.5;stroke-width:0.5px;"></path> <path d="M28.3,63.2C25.7,56.667 33.433,51 51.5,46.2" style="fill:none;fill-rule:nonzero;stroke:rgb(153,0,6);stroke-opacity:0.5;stroke-width:0.5px;"></path> <path d="M131.8,47C143.733,58.8 140.667,68.733 122.6,76.8" style="fill:none;fill-rule:nonzero;stroke:rgb(0,105,88);stroke-opacity:0.5;stroke-width:0.5px;"></path> <path d="M52,100.4C47.333,93.2 50,85.167 60,76.3" style="fill:none;fill-rule:nonzero;stroke:rgb(82,2,108);stroke-opacity:0.5;stroke-width:0.5px;"></path> <path d="M98.7,22C94.5,4.667 85.067,1.867 70.4,13.6" style="fill:none;fill-rule:nonzero;stroke:rgb(230,98,0);stroke-opacity:0.5;stroke-width:0.5px;"></path> <path d="M144.7,68.4C132.033,66.067 123.167,63.6 118.1,61" style="fill:none;fill-rule:nonzero;stroke:rgb(0,99,89);stroke-opacity:0.5;stroke-width:0.5px;"></path> <path d="M50.3,77.2C43.1,88.667 41.567,97.267 45.7,103" style="fill:none;fill-rule:nonzero;stroke:rgb(61,0,95);stroke-opacity:0.5;stroke-width:0.5px;"></path> <path d="M31,66.4C40.867,63.933 43.533,58.6 39,50.4" style="fill:none;fill-rule:nonzero;stroke:rgb(161,0,0);stroke-opacity:0.5;stroke-width:0.5px;"></path> <path d="M81,4.7C91.267,7.233 94.433,16.233 90.5,31.7" style="fill:none;fill-rule:nonzero;stroke:rgb(247,83,0);stroke-opacity:0.5;stroke-width:0.5px;"></path> <path d="M43.4,20.3C47.6,12.967 55.7,14.567 67.7,25.1" style="fill:none;fill-rule:nonzero;stroke:rgb(203,0,8);stroke-opacity:0.5;stroke-width:0.5px;"></path> <path d="M74.4,96C76.2,111.667 82.533,117.067 93.4,112.2" style="fill:none;fill-rule:nonzero;stroke:rgb(0,46,140);stroke-opacity:0.5;stroke-width:0.5px;"></path> <path d="M43.2,25.2C47.867,16.6 53.7,15.2 60.7,21" style="fill:none;fill-rule:nonzero;stroke:rgb(223,0,0);stroke-opacity:0.5;stroke-width:0.5px;"></path> <path d="M93.5,88.2C90.167,98 88.4,108.733 88.2,120.4" style="fill:none;fill-rule:nonzero;stroke:rgb(0,82,150);stroke-opacity:0.5;stroke-width:0.5px;"></path> <path d="M78.9,88.6C82.433,119.867 88.233,135.5 96.3,135.5" style="fill:none;fill-rule:nonzero;stroke:rgb(0,85,159);stroke-opacity:0.5;stroke-width:0.5px;"></path> <path d="M110.1,82.2C113.3,92.067 121.4,98.633 134.4,101.9" style="fill:none;fill-rule:nonzero;stroke:rgb(0,164,234);stroke-opacity:0.5;stroke-width:0.5px;"></path> <path d="M100.9,38.2C114.9,29.733 121.7,23.433 121.3,19.3" style="fill:none;fill-rule:nonzero;stroke:rgb(80,172,8);stroke-opacity:0.5;stroke-width:0.5px;"></path> <path d="M80.3,30C78.433,22.133 85.233,6.967 100.7,-15.5" style="fill:none;fill-rule:nonzero;stroke:rgb(225,82,0);stroke-opacity:0.5;stroke-width:0.5px;"></path> <path d="M130.2,96.7C125.2,106.1 115.967,106 102.5,96.4" style="fill:none;fill-rule:nonzero;stroke:rgb(0,150,241);stroke-opacity:0.5;stroke-width:0.5px;"></path> <path d="M25.2,54C33.067,54.667 44.933,57.167 60.8,61.5" style="fill:none;fill-rule:nonzero;stroke:rgb(187,12,63);stroke-opacity:0.5;stroke-width:0.5px;"></path> <path d="M65.2,82C55.067,88.533 50.567,94.3 51.7,99.3" style="fill:none;fill-rule:nonzero;stroke:rgb(72,0,95);stroke-opacity:0.5;stroke-width:0.5px;"></path> <path d="M92.5,31.5C90.633,19.633 89.433,3.967 88.9,-15.5" style="fill:none;fill-rule:nonzero;stroke:rgb(236,104,0);stroke-opacity:0.5;stroke-width:0.5px;"></path> <path d="M114,22.7C121.733,25.367 123,33.5 117.8,47.1" style="fill:none;fill-rule:nonzero;stroke:rgb(62,165,0);stroke-opacity:0.5;stroke-width:0.5px;"></path> <path d="M66,42C56.867,29.6 49.9,21.7 45.1,18.3" style="fill:none;fill-rule:nonzero;stroke:rgb(211,0,4);stroke-opacity:0.5;stroke-width:0.5px;"></path> <path d="M122.1,75.9C139.233,71.5 144.467,64.367 137.8,54.5" style="fill:none;fill-rule:nonzero;stroke:rgb(0,83,71);stroke-opacity:0.5;stroke-width:0.5px;"></path> <path d="M55.8,66.2C46.867,62.867 37.867,61.8 28.8,63" style="fill:none;fill-rule:nonzero;stroke:rgb(166,0,22);stroke-opacity:0.5;stroke-width:0.5px;"></path> <path d="M71.4,94.7C73.067,98.033 76.167,105.567 80.7,117.3" style="fill:none;fill-rule:nonzero;stroke:rgb(0,61,137);stroke-opacity:0.5;stroke-width:0.5px;"></path> <path d="M119.8,107.7C113.133,99.1 119.933,81.233 140.2,54.1" style="fill:none;fill-rule:nonzero;stroke:rgb(6,155,182);stroke-opacity:0.5;stroke-width:0.5px;"></path> <path d="M68.5,24.5C53.033,15.567 44.167,19.433 41.9,36.1" style="fill:none;fill-rule:nonzero;stroke:rgb(210,0,0);stroke-opacity:0.5;stroke-width:0.5px;"></path> <path d="M125.4,34.4C125.6,24.667 121.467,21.333 113,24.4" style="fill:none;fill-rule:nonzero;stroke:rgb(68,163,0);stroke-opacity:0.5;stroke-width:0.5px;"></path> <path d="M79,6C86.2,15.2 87.533,24 83,32.4" style="fill:none;fill-rule:nonzero;stroke:rgb(228,96,0);stroke-opacity:0.5;stroke-width:0.5px;"></path> <path d="M70.3,36.8C66.967,27 57.967,24.1 43.3,28.1" style="fill:none;fill-rule:nonzero;stroke:rgb(217,18,37);stroke-opacity:0.5;stroke-width:0.5px;"></path> <path d="M53.9,104.7C43.033,96.9 41.2,88.9 48.4,80.7" style="fill:none;fill-rule:nonzero;stroke:rgb(84,0,110);stroke-opacity:0.5;stroke-width:0.5px;"></path> <path d="M87.2,3C97,25.533 108.767,36 122.5,34.4" style="fill:none;fill-rule:nonzero;stroke:rgb(188,134,3);stroke-opacity:0.5;stroke-width:0.5px;"></path> <path d="M33.3,67.2C30.633,58.067 35.633,51.067 48.3,46.2" style="fill:none;fill-rule:nonzero;stroke:rgb(164,0,7);stroke-opacity:0.5;stroke-width:0.5px;"></path> <path d="M103.4,96.3C119.4,107.167 128.9,103.267 131.9,84.6" style="fill:none;fill-rule:nonzero;stroke:rgb(0,156,231);stroke-opacity:0.5;stroke-width:0.5px;"></path> <path d="M115,77.1C114.4,78.433 119.533,88.767 130.4,108.1" style="fill:none;fill-rule:nonzero;stroke:rgb(0,166,232);stroke-opacity:0.5;stroke-width:0.5px;"></path> <path d="M76.1,103.2C87.433,103.2 91.9,107.133 89.5,115" style="fill:none;fill-rule:nonzero;stroke:rgb(0,14,116);stroke-opacity:0.5;stroke-width:0.5px;"></path> <path d="M127.1,31.8C120.433,32.267 111.7,36.367 100.9,44.1" style="fill:none;fill-rule:nonzero;stroke:rgb(78,167,3);stroke-opacity:0.5;stroke-width:0.5px;"></path> <path d="M39.4,96.8C43.667,87.4 49.5,86.567 56.9,94.3" style="fill:none;fill-rule:nonzero;stroke:rgb(74,0,101);stroke-opacity:0.5;stroke-width:0.5px;"></path> <path d="M116.4,55.3L145.1,61.7" style="fill:none;fill-rule:nonzero;stroke:rgb(0,108,99);stroke-opacity:0.5;stroke-width:0.5px;"></path> <path d="M49,14.7C57.467,17.767 58.033,23.333 50.7,31.4" style="fill:none;fill-rule:nonzero;stroke:rgb(232,0,0);stroke-opacity:0.5;stroke-width:0.5px;"></path> <path d="M41.1,50C31.567,50.267 27.667,54.867 29.4,63.8" style="fill:none;fill-rule:nonzero;stroke:rgb(161,0,0);stroke-opacity:0.5;stroke-width:0.5px;"></path> <path d="M129.6,71.5C138.667,73.567 142.667,68.9 141.6,57.5" style="fill:none;fill-rule:nonzero;stroke:rgb(0,82,72);stroke-opacity:0.5;stroke-width:0.5px;"></path> <path d="M129.7,76.3C130.033,64.967 133.233,57.9 139.3,55.1" style="fill:none;fill-rule:nonzero;stroke:rgb(0,94,81);stroke-opacity:0.5;stroke-width:0.5px;"></path> <path d="M89.4,116.5C92.933,105.033 88.5,100.567 76.1,103.1" style="fill:none;fill-rule:nonzero;stroke:rgb(0,63,148);stroke-opacity:0.5;stroke-width:0.5px;"></path> <path d="M95.8,135.5C84.6,122.633 82.133,106.533 88.4,87.2" style="fill:none;fill-rule:nonzero;stroke:rgb(8,102,170);stroke-opacity:0.5;stroke-width:0.5px;"></path> <path d="M123,108.4C128.6,103 125.467,93.3 113.6,79.3" style="fill:none;fill-rule:nonzero;stroke:rgb(0,158,227);stroke-opacity:0.5;stroke-width:0.5px;"></path> <path d="M130,93.9C121.133,99.233 112.7,97.1 104.7,87.5" style="fill:none;fill-rule:nonzero;stroke:rgb(0,152,219);stroke-opacity:0.5;stroke-width:0.5px;"></path> <path d="M53.8,67.5C39.067,62.5 30.2,57.9 27.2,53.7" style="fill:none;fill-rule:nonzero;stroke:rgb(171,0,48);stroke-opacity:0.5;stroke-width:0.5px;"></path> <path d="M85.2,2.9C87.867,17.033 87.533,26.367 84.2,30.9" style="fill:none;fill-rule:nonzero;stroke:rgb(222,92,0);stroke-opacity:0.5;stroke-width:0.5px;"></path> <path d="M130.3,99.2C116.033,92.6 109.033,86.533 109.3,81" style="fill:none;fill-rule:nonzero;stroke:rgb(0,156,228);stroke-opacity:0.5;stroke-width:0.5px;"></path> <path d="M41.1,100.3C58.167,95.1 65.7,89.1 63.7,82.3" style="fill:none;fill-rule:nonzero;stroke:rgb(99,12,118);stroke-opacity:0.5;stroke-width:0.5px;"></path> <path d="M63,23.2C54.8,14.067 48.067,14.433 42.8,24.3" style="fill:none;fill-rule:nonzero;stroke:rgb(217,0,0);stroke-opacity:0.5;stroke-width:0.5px;"></path> <path d="M94,18.8C97.067,7.733 93,2.467 81.8,3" style="fill:none;fill-rule:nonzero;stroke:rgb(229,80,0);stroke-opacity:0.5;stroke-width:0.5px;"></path> <path d="M28.6,57C37.867,55 47.367,53.867 57.1,53.6" style="fill:none;fill-rule:nonzero;stroke:rgb(176,0,45);stroke-opacity:0.5;stroke-width:0.5px;"></path> <path d="M146,66.5C121.733,72.233 111.8,84.367 116.2,102.9" style="fill:none;fill-rule:nonzero;stroke:rgb(4,156,168);stroke-opacity:0.5;stroke-width:0.5px;"></path> <path d="M100.4,37.7C115.2,27.167 124.2,24.1 127.4,28.5" style="fill:none;fill-rule:nonzero;stroke:rgb(73,165,0);stroke-opacity:0.5;stroke-width:0.5px;"></path> <path d="M140.3,69.9C145.767,66.1 145.2,61.033 138.6,54.7" style="fill:none;fill-rule:nonzero;stroke:rgb(0,89,79);stroke-opacity:0.5;stroke-width:0.5px;"></path> <path d="M81.8,118.1C78.867,114.967 81.2,104.633 88.8,87.1" style="fill:none;fill-rule:nonzero;stroke:rgb(0,87,158);stroke-opacity:0.5;stroke-width:0.5px;"></path> <path d="M73.3,95.8C79.567,111.333 84.933,118.067 89.4,116" style="fill:none;fill-rule:nonzero;stroke:rgb(0,56,150);stroke-opacity:0.5;stroke-width:0.5px;"></path> <path d="M114.4,61.2C128.133,65.067 137.667,68.333 143,71" style="fill:none;fill-rule:nonzero;stroke:rgb(0,114,104);stroke-opacity:0.5;stroke-width:0.5px;"></path> <path d="M47.9,16.2C49.233,17.267 53.067,26.533 59.4,44" style="fill:none;fill-rule:nonzero;stroke:rgb(209,0,18);stroke-opacity:0.5;stroke-width:0.5px;"></path> <path d="M97.8,24.5C94.067,7.767 88.7,0.833 81.7,3.7" style="fill:none;fill-rule:nonzero;stroke:rgb(232,85,0);stroke-opacity:0.5;stroke-width:0.5px;"></path> <path d="M121,41.6C111.4,35.2 110.8,28.967 119.2,22.9" style="fill:none;fill-rule:nonzero;stroke:rgb(59,165,0);stroke-opacity:0.5;stroke-width:0.5px;"></path> <path d="M42.3,62.1C37.7,52.3 32.467,49.967 26.6,55.1" style="fill:none;fill-rule:nonzero;stroke:rgb(173,0,7);stroke-opacity:0.5;stroke-width:0.5px;"></path> <path d="M92.8,89.3C91.333,106.833 80.667,122.233 60.8,135.5" style="fill:none;fill-rule:nonzero;stroke:rgb(0,85,154);stroke-opacity:0.5;stroke-width:0.5px;"></path> </g> </g> </g> </g> </svg> 