<?xml version="1.0" encoding="UTF-8" standalone="no"?> <svg xmlns="http://www.w3.org/2000/svg" xmlns:xlink="http://www.w3.org/1999/xlink" xmlns:serif="http://www.serif.com/" width="100%" height="100%" viewBox="0 0 184 127" version="1.1" xml:space="preserve" style="fill-rule:evenodd;clip-rule:evenodd;stroke-linejoin:round;stroke-miterlimit:2;"> <g id="Artboard1" transform="matrix(1.03165,0,0,1.06169,-0.895348,-0.791522)"> <rect x="0.868" y="0.746" width="177.842" height="119.369" style="fill:none;"></rect> <g transform="matrix(0.969322,0,0,0.941891,3.39374,4.74587)"> <path d="M3.5,106.5L57.5,8.5L85.162,20.339L3.5,106.5Z" style="fill:rgb(19,9,5);fill-opacity:0.5;fill-rule:nonzero;"></path> <path d="M126.5,110.5L96.5,111.5L121.5,4.5L126.5,110.5Z" style="fill:rgb(11,11,10);fill-opacity:0.5;fill-rule:nonzero;"></path> <path d="M51.5,105.5L94.5,3.5L80.5,113.5L51.5,105.5Z" style="fill:rgb(11,10,10);fill-opacity:0.5;fill-rule:nonzero;"></path> <path d="M7.5,100.5L65.618,42.342L30.5,115.5L7.5,100.5Z" style="fill-opacity:0.5;fill-rule:nonzero;"></path> <path d="M143.5,109.5L174.5,115.5L172.5,8.5L143.5,109.5Z" style="fill:rgb(0,96,147);fill-opacity:0.5;fill-rule:nonzero;"></path> <path d="M102.5,93.5L143.5,14.5L124.5,118.5L102.5,93.5Z" style="fill:rgb(37,36,36);fill-opacity:0.5;fill-rule:nonzero;"></path> <path d="M84.5,97.5L112.5,13.5L86.5,1.5L84.5,97.5Z" style="fill:rgb(52,50,49);fill-opacity:0.5;fill-rule:nonzero;"></path> <path d="M173.5,109.5L144.5,7.5L174.5,6.5L173.5,109.5Z" style="fill:rgb(0,149,202);fill-opacity:0.5;fill-rule:nonzero;"></path> <path d="M119.5,2.5L145.5,8.5L105.5,71.5L119.5,2.5Z" style="fill:rgb(68,67,67);fill-opacity:0.5;fill-rule:nonzero;"></path> <path d="M146.5,37.5L146.5,115.5L172.5,112.5L146.5,37.5Z" style="fill:rgb(0,94,134);fill-opacity:0.5;fill-rule:nonzero;"></path> <path d="M62.5,79.5L52.5,105.5L80.5,115.5L62.5,79.5Z" style="fill:rgb(19,18,17);fill-opacity:0.5;fill-rule:nonzero;"></path> <path d="M113.5,30.5L99.5,109.5L130.5,78.5L113.5,30.5Z" style="fill:rgb(59,60,60);fill-opacity:0.5;fill-rule:nonzero;"></path> <path d="M9.5,102.5L33.5,109.5L71.5,39.5L9.5,102.5Z" style="fill:rgb(41,41,41);fill-opacity:0.5;fill-rule:nonzero;"></path> <path d="M58.5,87.5L88.5,5.5L115.5,17.5L58.5,87.5Z" style="fill:rgb(79,79,79);fill-opacity:0.5;fill-rule:nonzero;"></path> <path d="M126.5,115.5L99.5,108.5L109.5,52.5L126.5,115.5Z" style="fill:rgb(39,38,38);fill-opacity:0.5;fill-rule:nonzero;"></path> <path d="M81.5,19.5L41.5,94.5L57.5,5.5L81.5,19.5Z" style="fill:rgb(72,71,70);fill-opacity:0.5;fill-rule:nonzero;"></path> <path d="M125.5,111.5L112.5,34.5L144.5,10.5L125.5,111.5Z" style="fill:rgb(70,69,69);fill-opacity:0.5;fill-rule:nonzero;"></path> <path d="M173.5,51.5L145.5,113.5L174.5,115.5L173.5,51.5Z" style="fill:rgb(4,97,134);fill-opacity:0.5;fill-rule:nonzero;"></path> <path d="M49.5,77.5L18.5,79.5L53.5,15.5L49.5,77.5Z" style="fill:rgb(59,59,59);fill-opacity:0.5;fill-rule:nonzero;"></path> <g transform="matrix(1.08069,0,0,1.08853,-11.8208,-0.575476)"> <path d="M170.5,7.5L146.5,6.5L146.538,92.493L170.5,7.5Z" style="fill:rgb(16,149,199);fill-opacity:0.5;fill-rule:nonzero;"></path> </g> <path d="M145.5,9.5L117.5,3.5L107.5,83.5L145.5,9.5Z" style="fill:rgb(78,78,78);fill-opacity:0.5;fill-rule:nonzero;"></path> <path d="M92.5,72.5L77.5,115.5L63.5,108.5L92.5,72.5Z" style="fill:rgb(32,31,31);fill-opacity:0.5;fill-rule:nonzero;"></path> <path d="M14.5,103.5L30.5,113.5L42.5,90.5L14.5,103.5Z" style="fill:rgb(24,22,22);fill-opacity:0.5;fill-rule:nonzero;"></path> <path d="M87.5,2.5L111.5,11.5L81.5,70.5L87.5,2.5Z" style="fill:rgb(78,78,78);fill-opacity:0.5;fill-rule:nonzero;"></path> <path d="M132.5,74.5L125.5,112.5L110.5,113.5L132.5,74.5Z" style="fill:rgb(31,31,31);fill-opacity:0.5;fill-rule:nonzero;"></path> </g> </g> </svg> 