<?xml version="1.0" encoding="UTF-8" standalone="no"?> <svg xmlns="http://www.w3.org/2000/svg" xmlns:xlink="http://www.w3.org/1999/xlink" xmlns:serif="http://www.serif.com/" width="100%" height="100%" viewBox="0 0 168 168" version="1.1" xml:space="preserve" style="fill-rule:evenodd;clip-rule:evenodd;stroke-linejoin:round;stroke-miterlimit:2;"> <g id="Artboard1" transform="matrix(1,0,0,1,-6.0066,-5.2076)"> <rect x="6.007" y="5.208" width="167.963" height="167.963" style="fill:none;"></rect> <g transform="matrix(1,0,0,1,0.383582,20.0059)"> <g transform="matrix(0.836202,0,0,0.836202,15.0606,15.8336)"> <rect x="0" y="0" width="1" height="1" style="fill:rgb(162,119,118);"></rect> </g> <g transform="matrix(0.836202,0,0,0.836202,15.0606,15.8336)"> <path d="M96.6,105.3L27,31L104.7,11.2L125.7,12.2L96.6,105.3Z" style="fill:rgb(123,0,0);fill-opacity:0.5;fill-rule:nonzero;"></path> </g> <g transform="matrix(0.765269,0,0,0.626113,17.4724,18.3757)"> <path d="M125.1,31.2L34,12.3L132.6,12.1L195.6,68.5L125.1,31.2Z" style="fill:rgb(239,0,0);fill-opacity:0.5;fill-rule:nonzero;"></path> </g> <g transform="matrix(0.836202,0,0,0.836202,15.0606,15.8336)"> <path d="M27,87L50.2,127.6L80.9,101.3L59,73.8L27,87Z" style="fill-opacity:0.5;fill-rule:nonzero;"></path> </g> <g transform="matrix(0.78207,0,0,0.805024,15.3854,17.299)"> <path d="M52.2,48.4L6,47L40.6,67.8L193.1,70.8L52.2,48.4Z" style="fill:rgb(56,0,0);fill-opacity:0.5;fill-rule:nonzero;"></path> </g> <g transform="matrix(0.836202,0,0,0.836202,15.0606,15.8336)"> <path d="M120.8,61L41.4,69.6L54.4,25.9L89,103.6L120.8,61Z" style="fill:rgb(35,0,0);fill-opacity:0.5;fill-rule:nonzero;"></path> </g> <g transform="matrix(0.836202,0,0,0.836202,15.0606,15.8336)"> <path d="M107.8,114.5L131.6,126.5L153.6,110L112,80.9L107.8,114.5ZM4.8,81.6L15.8,100.2L28,80.2L77.5,41.5L4.8,81.6Z" style="fill-opacity:0.5;fill-rule:nonzero;"></path> </g> <g transform="matrix(0.836202,0,0,0.836202,15.0606,15.8336)"> <path d="M128.5,8L179,64L162.6,98.4L158.6,56.4L128.5,8Z" style="fill:rgb(199,0,0);fill-opacity:0.5;fill-rule:nonzero;"></path> </g> <g transform="matrix(0.836202,0,0,0.836202,15.0606,15.8336)"> <path d="M4,27.6L105.8,58L123,25.8L20.2,26.7L4,27.6Z" style="fill:rgb(131,0,0);fill-opacity:0.5;fill-rule:nonzero;"></path> </g> <g transform="matrix(0.836202,0,0,0.836202,15.0606,15.8336)"> <path d="M78.2,90.3L33.8,82.2L34.4,119.9L65.8,123.3L78.2,90.3Z" style="fill-opacity:0.5;fill-rule:nonzero;"></path> </g> <g transform="matrix(0.836202,0,0,0.836202,15.0606,15.8336)"> <path d="M105.2,80L126.2,11.8L27.5,14.8L63.4,21L105.2,80Z" style="fill:rgb(161,0,0);fill-opacity:0.5;fill-rule:nonzero;"></path> </g> <g transform="matrix(0.836202,0,0,0.836202,15.0606,15.8336)"> <path d="M14.6,60.7L49.6,59.7L-3.6,50.6L43.3,46.3L14.6,60.7Z" style="fill:rgb(1,0,0);fill-opacity:0.5;fill-rule:nonzero;"></path> </g> <g transform="matrix(0.836202,0,0,0.836202,15.0606,15.8336)"> <path d="M8.7,68.3L8.9,89L18.1,101L32.4,69.2L8.7,68.3Z" style="fill-opacity:0.5;fill-rule:nonzero;"></path> </g> <g transform="matrix(0.836202,0,0,0.836202,15.0606,15.8336)"> <path d="M119,60.2L167.6,82.3L171,59.6L137.7,62L119,60.2Z" style="fill:rgb(167,0,0);fill-opacity:0.5;fill-rule:nonzero;"></path> </g> <g transform="matrix(0.836202,0,0,0.836202,15.0606,15.8336)"> <path d="M125.3,64L36.6,26L66.8,67.6L88.6,93.4L125.3,64Z" style="fill:rgb(74,0,0);fill-opacity:0.5;fill-rule:nonzero;"></path> </g> <g transform="matrix(0.836202,0,0,0.836202,15.0606,15.8336)"> <path d="M174.2,53.6L104.6,16.1L135.4,16.6L171.5,44.6L174.2,53.6Z" style="fill:rgb(221,0,0);fill-opacity:0.5;fill-rule:nonzero;"></path> </g> <g transform="matrix(0.836202,0,0,0.836202,15.0606,15.8336)"> <path d="M112.8,80L146.5,80.3L150.5,116.8L117.3,122.8L112.8,80Z" style="fill:rgb(55,0,0);fill-opacity:0.5;fill-rule:nonzero;"></path> </g> <g transform="matrix(0.836202,0,0,0.836202,15.0606,15.8336)"> <path d="M26.6,101.6L68.5,79.5L78.2,107.8L57.7,125.5L26.6,101.6ZM95,103.4L100.2,93.9L81.5,72.6L84.7,101.3L95,103.4Z" style="fill-opacity:0.5;fill-rule:nonzero;"></path> </g> <g transform="matrix(0.836202,0,0,0.836202,15.0606,15.8336)"> <path d="M25.4,41.3L41,39.1L15.6,26.9L39,26.7L25.4,41.3Z" style="fill:rgb(34,0,0);fill-opacity:0.5;fill-rule:nonzero;"></path> </g> <g transform="matrix(0.836202,0,0,0.836202,15.0606,15.8336)"> <path d="M58,73.9L35.8,80.6L28.1,98L71.1,116.8L58,73.9Z" style="fill-opacity:0.5;fill-rule:nonzero;"></path> </g> <g transform="matrix(0.836202,0,0,0.836202,15.0606,15.8336)"> <path d="M159.4,92L168.9,89.1L175.3,67L162.5,37.4L159.4,92Z" style="fill:rgb(152,0,0);fill-opacity:0.5;fill-rule:nonzero;"></path> </g> <g transform="matrix(0.836202,0,0,0.836202,15.0606,15.8336)"> <path d="M112.6,80.6L136.6,74.6L153.9,89.5L150.2,117.3L112.6,80.6Z" style="fill:rgb(92,0,0);fill-opacity:0.5;fill-rule:nonzero;"></path> </g> <g transform="matrix(0.836202,0,0,0.836202,15.0606,15.8336)"> <path d="M6.6,69.9L20.6,101.4L26.5,78.1L45.2,66.1L6.6,69.9Z" style="fill-opacity:0.5;fill-rule:nonzero;"></path> </g> <g transform="matrix(0.836202,0,0,0.836202,15.0606,15.8336)"> <path d="M128.6,125.4L111.4,81.5L105.6,95.8L113.1,117.6L128.6,125.4Z" style="fill:rgb(14,0,0);fill-opacity:0.5;fill-rule:nonzero;"></path> </g> <g transform="matrix(0.836202,0,0,0.836202,15.0606,15.8336)"> <path d="M63.3,28.4L6.4,25.4L9.1,32.4L26.1,32.6L63.3,28.4Z" style="fill:rgb(72,0,0);fill-opacity:0.5;fill-rule:nonzero;"></path> </g> <g transform="matrix(0.836202,0,0,0.836202,15.0606,15.8336)"> <path d="M45.2,61.2L62.2,44.2L20,52L17,60L45.2,61.2Z" style="fill:rgb(33,0,0);fill-opacity:0.5;fill-rule:nonzero;"></path> </g> <g transform="matrix(0.836202,0,0,0.836202,15.0606,15.8336)"> <path d="M128.3,29L180,69.6L135.9,16L123.1,11L128.3,29Z" style="fill:rgb(209,0,0);fill-opacity:0.5;fill-rule:nonzero;"></path> </g> <g transform="matrix(0.836202,0,0,0.836202,15.0606,15.8336)"> <path d="M112.5,78.4L103.8,79.9L94.8,111.6L101.1,105.6L112.5,78.4Z" style="fill:rgb(253,255,255);fill-opacity:0.5;fill-rule:nonzero;"></path> </g> <g transform="matrix(0.836202,0,0,0.836202,15.0606,15.8336)"> <path d="M46.5,12.2L52.9,7.9L37.7,18.6L135.8,15.7L46.5,12.2Z" style="fill:rgb(162,0,0);fill-opacity:0.5;fill-rule:nonzero;"></path> </g> <g transform="matrix(0.836202,0,0,0.836202,15.0606,15.8336)"> <path d="M28,100L35,117.8L78.8,94.4L48.7,74L28,100Z" style="fill-opacity:0.5;fill-rule:nonzero;"></path> </g> <g transform="matrix(0.836202,0,0,0.836202,15.0606,15.8336)"> <path d="M30.8,78.5L21.5,95.8L49.5,68.8L28.8,77.3L30.8,78.5Z" style="fill:white;fill-opacity:0.5;fill-rule:nonzero;"></path> </g> <g transform="matrix(0.836202,0,0,0.836202,15.0606,15.8336)"> <path d="M99.6,79.9L67.4,14.3L43.7,66.2L137.4,60.5L99.6,79.9Z" style="fill:rgb(99,0,0);fill-opacity:0.5;fill-rule:nonzero;"></path> </g> <g transform="matrix(0.836202,0,0,0.836202,15.0606,15.8336)"> <path d="M73.3,54.2L4.3,46.2L68.7,72L97,94L73.3,54.2Z" style="fill:rgb(44,0,0);fill-opacity:0.5;fill-rule:nonzero;"></path> </g> <g transform="matrix(0.836202,0,0,0.836202,15.0606,15.8336)"> <path d="M171,91L154.5,61L100.5,64.3L142,68.8L171,91Z" style="fill:rgb(139,0,0);fill-opacity:0.5;fill-rule:nonzero;"></path> </g> </g> </g> </svg> 