<?xml version="1.0" encoding="UTF-8" standalone="no"?> <svg xmlns="http://www.w3.org/2000/svg" xmlns:xlink="http://www.w3.org/1999/xlink" xmlns:serif="http://www.serif.com/" width="100%" height="100%" viewBox="0 0 177 177" version="1.1" xml:space="preserve" style="fill-rule:evenodd;clip-rule:evenodd;stroke-linejoin:round;stroke-miterlimit:2;"> <g id="Artboard1" transform="matrix(1,0,0,1,-1.05337,-0.463677)"> <rect x="1.053" y="0.464" width="176.785" height="176.785" style="fill:none;"></rect> <g transform="matrix(1,0,0,1,5.23961,-1.70031)"> <g transform="matrix(0.578544,0.602838,-0.602838,0.578544,88.9636,-18.4905)"> <path d="M63.5,-15.5L163.5,133.5L41.5,166.5L63.5,-15.5Z" style="fill:rgb(39,0,0);fill-opacity:0.5;fill-rule:nonzero;"></path> </g> <g transform="matrix(0.578544,0.602838,-0.602838,0.578544,88.9636,-18.4905)"> <path d="M111.5,157.5L78.5,-15.5L152.5,82.5L111.5,157.5Z" style="fill:rgb(69,5,0);fill-opacity:0.5;fill-rule:nonzero;"></path> </g> <g transform="matrix(0.578544,0.602838,-0.602838,0.578544,88.9636,-18.4905)"> <path d="M60.5,3.5L100.5,163.5L25.5,111.5L60.5,3.5Z" style="fill:rgb(67,8,0);fill-opacity:0.5;fill-rule:nonzero;"></path> </g> <g transform="matrix(0.578544,0.602838,-0.602838,0.578544,88.9636,-18.4905)"> <path d="M111.5,23.5L90.5,-1.5L31.5,28.5L111.5,23.5Z" style="fill:rgb(158,32,0);fill-opacity:0.5;fill-rule:nonzero;"></path> </g> <g transform="matrix(0.578544,0.602838,-0.602838,0.578544,88.9636,-18.4905)"> <path d="M169.5,82.5L126.5,89.5L164.5,69.5L169.5,82.5Z" style="fill:rgb(5,0,0);fill-opacity:0.5;fill-rule:nonzero;"></path> </g> <g transform="matrix(0.578544,0.602838,-0.602838,0.578544,88.9636,-18.4905)"> <path d="M88.5,117.5L9.5,41.5L74.5,163.5L88.5,117.5Z" style="fill:rgb(48,13,0);fill-opacity:0.5;fill-rule:nonzero;"></path> </g> <g transform="matrix(0.578544,0.602838,-0.602838,0.578544,88.9636,-18.4905)"> <path d="M96.5,84.5L95.5,134.5L74.5,49.5L96.5,84.5Z" style="fill:white;fill-opacity:0.5;fill-rule:nonzero;"></path> </g> <g transform="matrix(0.578544,0.602838,-0.602838,0.578544,88.9636,-18.4905)"> <path d="M136.5,139.5L136.5,11.5L101.5,124.5L136.5,139.5Z" style="fill:rgb(48,13,0);fill-opacity:0.5;fill-rule:nonzero;"></path> </g> <g transform="matrix(0.578544,0.602838,-0.602838,0.578544,88.9636,-18.4905)"> <path d="M13.5,118.5L10.5,106.5L55.5,106.5L13.5,118.5Z" style="fill-opacity:0.5;fill-rule:nonzero;"></path> </g> <g transform="matrix(0.578544,0.602838,-0.602838,0.578544,88.9636,-18.4905)"> <path d="M130.5,110.5L164.5,132.5L166.5,152.5L130.5,110.5ZM133.5,145.5L111.5,155.5L97.5,94.5L133.5,145.5Z" style="fill-opacity:0.5;fill-rule:nonzero;"></path> </g> <g transform="matrix(0.578544,0.602838,-0.602838,0.578544,88.9636,-18.4905)"> <path d="M42.5,174.5L54.5,174.5L49.5,136.5L42.5,174.5Z" style="fill-opacity:0.5;fill-rule:nonzero;"></path> </g> <g transform="matrix(0.578544,0.602838,-0.602838,0.578544,88.9636,-18.4905)"> <path d="M77.5,77.5L99.5,159.5L72.5,158.5L77.5,77.5Z" style="fill:rgb(0,3,0);fill-opacity:0.5;fill-rule:nonzero;"></path> </g> <g transform="matrix(0.578544,0.602838,-0.602838,0.578544,88.9636,-18.4905)"> <path d="M139.5,13.5L137.5,50.5L125.5,15.5L139.5,13.5Z" style="fill:rgb(127,7,0);fill-opacity:0.5;fill-rule:nonzero;"></path> </g> <g transform="matrix(0.578544,0.602838,-0.602838,0.578544,88.9636,-18.4905)"> <path d="M28.5,67.5L72.5,32.5L141.5,41.5L28.5,67.5Z" style="fill:rgb(153,49,0);fill-opacity:0.5;fill-rule:nonzero;"></path> </g> <g transform="matrix(0.578544,0.602838,-0.602838,0.578544,88.9636,-18.4905)"> <path d="M25.5,41.5L21.5,69.5L13.5,40.5L25.5,41.5Z" style="fill:rgb(109,0,0);fill-opacity:0.5;fill-rule:nonzero;"></path> </g> <g transform="matrix(0.578544,0.602838,-0.602838,0.578544,88.9636,-18.4905)"> <path d="M41.5,16.5L43.5,41.5L96.5,-2.5L41.5,16.5Z" style="fill:rgb(145,45,0);fill-opacity:0.5;fill-rule:nonzero;"></path> </g> <g transform="matrix(0.578544,0.602838,-0.602838,0.578544,88.9636,-18.4905)"> <path d="M151.5,118.5L166.5,145.5L156.5,150.5L151.5,118.5Z" style="fill-opacity:0.5;fill-rule:nonzero;"></path> </g> <g transform="matrix(0.578544,0.602838,-0.602838,0.578544,88.9636,-18.4905)"> <path d="M138.5,45.5L105.5,123.5L81.5,31.5L138.5,45.5Z" style="fill:rgb(115,46,0);fill-opacity:0.5;fill-rule:nonzero;"></path> </g> <g transform="matrix(0.578544,0.602838,-0.602838,0.578544,88.9636,-18.4905)"> <path d="M24.5,70.5L74.5,46.5L88.5,136.5L24.5,70.5Z" style="fill:rgb(113,45,0);fill-opacity:0.5;fill-rule:nonzero;"></path> </g> <g transform="matrix(0.578544,0.602838,-0.602838,0.578544,88.9636,-18.4905)"> <path d="M88.5,160.5L37.5,102.5L52.5,143.5L88.5,160.5Z" style="fill:rgb(3,1,0);fill-opacity:0.5;fill-rule:nonzero;"></path> </g> <g transform="matrix(0.578544,0.602838,-0.602838,0.578544,88.9636,-18.4905)"> <path d="M7.5,107.5L18.5,117.5L50.5,99.5L7.5,107.5Z" style="fill:rgb(74,6,0);fill-opacity:0.5;fill-rule:nonzero;"></path> </g> <g transform="matrix(0.578544,0.602838,-0.602838,0.578544,88.9636,-18.4905)"> <path d="M108.5,155.5L146.5,76.5L134.5,144.5L108.5,155.5Z" style="fill:rgb(2,5,0);fill-opacity:0.5;fill-rule:nonzero;"></path> </g> <g transform="matrix(0.578544,0.602838,-0.602838,0.578544,88.9636,-18.4905)"> <path d="M167.5,72.5L163.5,84.5L127.5,80.5L167.5,72.5Z" style="fill:rgb(68,0,0);fill-opacity:0.5;fill-rule:nonzero;"></path> </g> <g transform="matrix(0.578544,0.602838,-0.602838,0.578544,88.9636,-18.4905)"> <path d="M112.5,26.5L48.5,12.5L93.5,-0.5L112.5,26.5Z" style="fill:rgb(139,54,0);fill-opacity:0.5;fill-rule:nonzero;"></path> </g> <g transform="matrix(0.578544,0.602838,-0.602838,0.578544,88.9636,-18.4905)"> <path d="M39.5,163.5L50.5,175.5L56.5,127.5L39.5,163.5Z" style="fill-opacity:0.5;fill-rule:nonzero;"></path> </g> <g transform="matrix(0.578544,0.602838,-0.602838,0.578544,88.9636,-18.4905)"> <path d="M90.5,31.5L37.5,112.5L40.5,51.5L90.5,31.5Z" style="fill:rgb(122,48,0);fill-opacity:0.5;fill-rule:nonzero;"></path> </g> <g transform="matrix(0.578544,0.602838,-0.602838,0.578544,88.9636,-18.4905)"> <path d="M105.5,19.5L48.5,12.5L43.5,34.5L105.5,19.5Z" style="fill:rgb(139,53,0);fill-opacity:0.5;fill-rule:nonzero;"></path> </g> <g transform="matrix(0.578544,0.602838,-0.602838,0.578544,88.9636,-18.4905)"> <path d="M51.5,163.5L74.5,163.5L57.5,145.5L51.5,163.5ZM104.5,27.5L72.5,32.5L86.5,24.5L104.5,27.5Z" style="fill:white;fill-opacity:0.5;fill-rule:nonzero;"></path> </g> <g transform="matrix(0.578544,0.602838,-0.602838,0.578544,88.9636,-18.4905)"> <path d="M13.5,45.5L22.5,39.5L33.5,72.5L13.5,45.5Z" style="fill:rgb(131,30,0);fill-opacity:0.5;fill-rule:nonzero;"></path> </g> <g transform="matrix(0.578544,0.602838,-0.602838,0.578544,88.9636,-18.4905)"> <path d="M99.5,112.5L86.5,55.5L79.5,78.5L99.5,112.5Z" style="fill:white;fill-opacity:0.5;fill-rule:nonzero;"></path> </g> <g transform="matrix(0.578544,0.602838,-0.602838,0.578544,88.9636,-18.4905)"> <path d="M157.5,126.5L103.5,123.5L89.5,62.5L157.5,126.5Z" style="fill:rgb(53,29,8);fill-opacity:0.5;fill-rule:nonzero;"></path> </g> <g transform="matrix(0.578544,0.602838,-0.602838,0.578544,88.9636,-18.4905)"> <path d="M139.5,26.5L140.5,52.5L126.5,16.5L139.5,26.5Z" style="fill:rgb(129,50,0);fill-opacity:0.5;fill-rule:nonzero;"></path> </g> <g transform="matrix(0.578544,0.602838,-0.602838,0.578544,88.9636,-18.4905)"> <path d="M140.5,125.5L151.5,136.5L139.5,141.5L140.5,125.5Z" style="fill:white;fill-opacity:0.5;fill-rule:nonzero;"></path> </g> <g transform="matrix(0.578544,0.602838,-0.602838,0.578544,88.9636,-18.4905)"> <path d="M91.5,67.5L99.5,97.5L168.5,82.5L91.5,67.5Z" style="fill:rgb(97,44,6);fill-opacity:0.5;fill-rule:nonzero;"></path> </g> </g> </g> </svg> 