<?xml version="1.0" encoding="UTF-8" standalone="no"?> <svg xmlns="http://www.w3.org/2000/svg" xmlns:xlink="http://www.w3.org/1999/xlink" xmlns:serif="http://www.serif.com/" width="100%" height="100%" viewBox="0 0 108 104" version="1.1" xml:space="preserve" style="fill-rule:evenodd;clip-rule:evenodd;stroke-linejoin:round;stroke-miterlimit:2;"> <g id="Artboard1" transform="matrix(0.976712,0,0,1.03238,-38.754,-1.76974)"> <rect x="39.678" y="1.714" width="109.713" height="100.336" style="fill:none;"></rect> <g transform="matrix(6.043,0,0,2.85859,-466.841,-145.381)"> <ellipse cx="93" cy="69" rx="8" ry="16" style="fill:url(#_Linear1);"></ellipse> </g> <g transform="matrix(1.02384,0,0,0.968639,-2.86777,3.28387)"> <g transform="matrix(1,0,0,1,5.17145,1.80689)"> <ellipse cx="70" cy="49" rx="24" ry="38" style="fill:rgb(123,224,255);fill-opacity:0.5;"></ellipse> </g> <g transform="matrix(1,0,0,1,5.17145,1.80689)"> <ellipse cx="60" cy="53" rx="15" ry="20" style="fill:rgb(167,249,255);fill-opacity:0.5;"></ellipse> </g> <g transform="matrix(1,0,0,0.856292,5.17145,15.7466)"> <ellipse cx="89" cy="41" rx="14" ry="56" style="fill:rgb(40,63,110);fill-opacity:0.5;"></ellipse> </g> <g transform="matrix(1,0,0,1,5.17145,1.80689)"> <ellipse cx="96" cy="35" rx="17" ry="10" style="fill:rgb(168,146,116);fill-opacity:0.5;"></ellipse> </g> <g transform="matrix(1,0,0,1,5.17145,1.80689)"> <ellipse cx="62" cy="32" rx="15" ry="13" style="fill:rgb(9,125,255);fill-opacity:0.5;"></ellipse> </g> <g transform="matrix(1,0,0,1,5.17145,1.80689)"> <ellipse cx="130" cy="47" rx="6" ry="22" style="fill:rgb(2,79,187);fill-opacity:0.5;"></ellipse> </g> <g transform="matrix(1,0,0,1,5.17145,1.80689)"> <ellipse cx="76" cy="73" rx="15" ry="20" style="fill:rgb(11,72,169);fill-opacity:0.5;"></ellipse> </g> <g transform="matrix(1,0,0,1,5.17145,1.80689)"> <ellipse cx="89" cy="71" rx="10" ry="20" style="fill:rgb(0,32,84);fill-opacity:0.5;"></ellipse> </g> <g transform="matrix(1,0,0,1,5.17145,1.80689)"> <ellipse cx="55" cy="60" rx="6" ry="15" style="fill:rgb(222,249,219);fill-opacity:0.5;"></ellipse> </g> <g transform="matrix(1,0,0,1,5.17145,1.80689)"> <ellipse cx="70" cy="48" rx="9" ry="11" style="fill:rgb(105,212,255);fill-opacity:0.5;"></ellipse> </g> <g transform="matrix(1,0,0,1,5.17145,1.80689)"> <ellipse cx="76" cy="19" rx="9" ry="14" style="fill:rgb(12,74,168);fill-opacity:0.5;"></ellipse> </g> <g transform="matrix(1,0,0,1,5.17145,1.80689)"> <ellipse cx="111" cy="44" rx="11" ry="32" style="fill:rgb(50,56,48);fill-opacity:0.5;"></ellipse> </g> <g transform="matrix(1,0,0,1,5.17145,1.80689)"> <ellipse cx="51" cy="52" rx="5" ry="11" style="fill:rgb(222,255,233);fill-opacity:0.5;"></ellipse> </g> <g transform="matrix(1,0,0,1,5.17145,1.80689)"> <ellipse cx="59" cy="64" rx="3" ry="16" style="fill:rgb(196,224,197);fill-opacity:0.5;"></ellipse> </g> <g transform="matrix(1,0,0,1,5.17145,1.80689)"> <ellipse cx="74" cy="79" rx="6" ry="12" style="fill:rgb(96,133,180);fill-opacity:0.5;"></ellipse> </g> <g transform="matrix(1,0,0,1,5.17145,1.80689)"> <ellipse cx="44" cy="47" rx="3" ry="15" style="fill:rgb(20,88,168);fill-opacity:0.5;"></ellipse> </g> <g transform="matrix(1,0,0,1,5.17145,1.80689)"> <ellipse cx="122" cy="28" rx="5" ry="9" style="fill:rgb(70,104,137);fill-opacity:0.5;"></ellipse> </g> <g transform="matrix(1,0,0,1,5.17145,1.80689)"> <ellipse cx="58" cy="35" rx="6" ry="15" style="fill:rgb(55,165,255);fill-opacity:0.5;"></ellipse> </g> <g transform="matrix(1,0,0,1,5.17145,1.80689)"> <ellipse cx="68" cy="74" rx="7" ry="15" style="fill:rgb(43,125,216);fill-opacity:0.5;"></ellipse> </g> <g transform="matrix(1,0,0,1,5.17145,1.80689)"> <ellipse cx="78" cy="11" rx="7" ry="4" style="fill:rgb(94,133,170);fill-opacity:0.5;"></ellipse> </g> <g transform="matrix(1,0,0,1,5.17145,1.80689)"> <ellipse cx="93" cy="38" rx="8" ry="16" style="fill:rgb(111,118,124);fill-opacity:0.5;"></ellipse> </g> <g transform="matrix(1,0,0,1,5.17145,1.80689)"> <ellipse cx="125" cy="70" rx="4" ry="8" style="fill:rgb(0,65,170);fill-opacity:0.5;"></ellipse> </g> <g transform="matrix(1,0,0,1,5.17145,1.80689)"> <ellipse cx="69" cy="46" rx="5" ry="4" style="fill:rgb(198,255,255);fill-opacity:0.5;"></ellipse> </g> <g transform="matrix(1,0,0,1,5.17145,1.80689)"> <ellipse cx="77" cy="47" rx="4" ry="11" style="fill:rgb(30,120,241);fill-opacity:0.5;"></ellipse> </g> <g transform="matrix(1,0,0,1,5.17145,1.80689)"> <ellipse cx="130" cy="48" rx="2" ry="14" style="fill:rgb(21,104,223);fill-opacity:0.5;"></ellipse> </g> <g transform="matrix(1,0,0,1,5.17145,1.80689)"> <ellipse cx="114" cy="69" rx="6" ry="11" style="fill:rgb(0,11,36);fill-opacity:0.5;"></ellipse> </g> <g transform="matrix(1,0,0,1,5.17145,1.80689)"> <ellipse cx="59" cy="56" rx="7" ry="5" style="fill:rgb(200,231,203);fill-opacity:0.5;"></ellipse> </g> <g transform="matrix(1,0,0,1,5.17145,1.80689)"> <ellipse cx="84" cy="16" rx="5" ry="13" style="fill:rgb(27,63,106);fill-opacity:0.5;"></ellipse> </g> <g transform="matrix(1,0,0,1,5.17145,1.80689)"> <ellipse cx="83" cy="64" rx="7" ry="15" style="fill:rgb(2,59,130);fill-opacity:0.5;"></ellipse> </g> <g transform="matrix(1,0,0,1,5.17145,1.80689)"> <ellipse cx="103" cy="49" rx="3" ry="24" style="fill:rgb(79,92,89);fill-opacity:0.5;"></ellipse> </g> <g transform="matrix(1,0,0,1,5.17145,1.80689)"> <ellipse cx="58" cy="25" rx="4" ry="2" style="fill:rgb(212,244,249);fill-opacity:0.5;"></ellipse> </g> <g transform="matrix(1,0,0,1,5.17145,1.80689)"> <ellipse cx="64" cy="31" rx="8" ry="6" style="fill:rgb(0,99,212);fill-opacity:0.5;"></ellipse> </g> <g transform="matrix(1,0,0,1,5.17145,1.80689)"> <circle cx="99" cy="14" r="7" style="fill:rgb(28,42,28);fill-opacity:0.5;"></circle> </g> <g transform="matrix(1,0,0,1,5.17145,1.80689)"> <ellipse cx="123" cy="53" rx="5" ry="16" style="fill:rgb(8,27,64);fill-opacity:0.5;"></ellipse> </g> <g transform="matrix(1,0,0,1,5.17145,1.80689)"> <circle cx="71" cy="69" r="3" style="fill:rgb(204,214,214);fill-opacity:0.5;"></circle> </g> <g transform="matrix(1,0,0,1,5.17145,1.80689)"> <ellipse cx="103" cy="43" rx="22" ry="4" style="fill:rgb(55,76,73);fill-opacity:0.5;"></ellipse> </g> <g transform="matrix(1,0,0,1,5.17145,1.80689)"> <ellipse cx="90" cy="33" rx="10" ry="5" style="fill:rgb(155,142,146);fill-opacity:0.5;"></ellipse> </g> <g transform="matrix(1,0,0,1,5.17145,1.80689)"> <ellipse cx="104" cy="79" rx="9" ry="8" style="fill:rgb(3,19,45);fill-opacity:0.5;"></ellipse> </g> <g transform="matrix(1,0,0,1,5.17145,1.80689)"> <ellipse cx="57" cy="72" rx="4" ry="5" style="fill:rgb(200,230,240);fill-opacity:0.5;"></ellipse> </g> <g transform="matrix(1,0,0,1,5.17145,1.80689)"> <ellipse cx="96" cy="86" rx="23" ry="6" style="fill:rgb(27,53,83);fill-opacity:0.5;"></ellipse> </g> <g transform="matrix(1,0,0,1,5.17145,1.80689)"> <ellipse cx="71" cy="54" rx="4" ry="7" style="fill:rgb(52,167,255);fill-opacity:0.5;"></ellipse> </g> <g transform="matrix(1,0,0,1,5.17145,1.80689)"> <ellipse cx="75" cy="26" rx="7" ry="8" style="fill:rgb(0,68,154);fill-opacity:0.5;"></ellipse> </g> <g transform="matrix(1,0,0,1,5.17145,1.80689)"> <ellipse cx="57" cy="59" rx="8" ry="10" style="fill:rgb(169,216,198);fill-opacity:0.5;"></ellipse> </g> <g transform="matrix(1,0,0,1,5.17145,1.80689)"> <ellipse cx="121" cy="77" rx="4" ry="5" style="fill:rgb(3,63,150);fill-opacity:0.5;"></ellipse> </g> <g transform="matrix(1,0,0,1,5.17145,1.80689)"> <ellipse cx="54" cy="38" rx="8" ry="5" style="fill:rgb(64,174,255);fill-opacity:0.5;"></ellipse> </g> <g transform="matrix(1,0,0,1,5.17145,1.80689)"> <ellipse cx="117" cy="17" rx="3" ry="5" style="fill:rgb(41,86,138);fill-opacity:0.5;"></ellipse> </g> <g transform="matrix(1,0,0,1,5.17145,1.80689)"> <ellipse cx="72" cy="80" rx="2" ry="8" style="fill:rgb(9,70,150);fill-opacity:0.5;"></ellipse> </g> <g transform="matrix(1,0,0,1,5.17145,1.80689)"> <ellipse cx="93" cy="69" rx="8" ry="16" style="fill:rgb(2,41,97);fill-opacity:0.5;"></ellipse> </g> <g transform="matrix(1,0,0,1,5.17145,1.80689)"> <ellipse cx="48" cy="46" rx="3" ry="6" style="fill:rgb(170,234,243);fill-opacity:0.5;"></ellipse> </g> <g transform="matrix(1,0,0,1,5.17145,1.80689)"> <ellipse cx="62" cy="49" rx="5" ry="3" style="fill:rgb(51,180,255);fill-opacity:0.5;"></ellipse> </g> <g transform="matrix(1,0,0,1,5.17145,1.80689)"> <ellipse cx="64" cy="55" rx="2" ry="3" style="fill:rgb(255,255,248);fill-opacity:0.5;"></ellipse> </g> <g transform="matrix(1,0,0,1,5.17145,1.80689)"> <ellipse cx="72" cy="13" rx="7" ry="4" style="fill:rgb(70,123,192);fill-opacity:0.5;"></ellipse> </g> <g transform="matrix(1,0,0,1,5.17145,1.80689)"> <ellipse cx="54" cy="35" rx="4" ry="8" style="fill:rgb(19,152,255);fill-opacity:0.5;"></ellipse> </g> <g transform="matrix(1,0,0,1,5.17145,1.80689)"> <ellipse cx="66" cy="71" rx="3" ry="4" style="fill:rgb(0,88,204);fill-opacity:0.5;"></ellipse> </g> <g transform="matrix(1,0,0,1,5.17145,1.80689)"> <ellipse cx="77" cy="77" rx="3" ry="5" style="fill:rgb(139,150,162);fill-opacity:0.5;"></ellipse> </g> <g transform="matrix(1,0,0,1,5.17145,1.80689)"> <ellipse cx="95" cy="34" rx="8" ry="11" style="fill:rgb(111,111,113);fill-opacity:0.5;"></ellipse> </g> <g transform="matrix(1,0,0,1,5.17145,1.80689)"> <ellipse cx="79" cy="8" rx="5" ry="2" style="fill:rgb(119,143,162);fill-opacity:0.5;"></ellipse> </g> <g transform="matrix(1,0,0,1,5.17145,1.80689)"> <ellipse cx="136" cy="43" rx="3" ry="13" style="fill:rgb(15,44,90);fill-opacity:0.5;"></ellipse> </g> <g transform="matrix(1,0,0,1,5.17145,1.80689)"> <ellipse cx="68" cy="21" rx="5" ry="7" style="fill:rgb(25,111,210);fill-opacity:0.5;"></ellipse> </g> <g transform="matrix(1,0,0,1,5.17145,1.80689)"> <ellipse cx="58" cy="40" rx="2" ry="3" style="fill:rgb(162,208,237);fill-opacity:0.5;"></ellipse> </g> <g transform="matrix(1,0,0,1,5.17145,1.80689)"> <ellipse cx="91" cy="46" rx="7" ry="2" style="fill:rgb(14,66,128);fill-opacity:0.5;"></ellipse> </g> <g transform="matrix(1,0,0,1,5.17145,1.80689)"> <ellipse cx="53" cy="74" rx="2" ry="4" style="fill:rgb(0,92,196);fill-opacity:0.5;"></ellipse> </g> <g transform="matrix(1,0,0,1,5.17145,1.80689)"> <ellipse cx="81" cy="37" rx="2" ry="5" style="fill:rgb(179,174,168);fill-opacity:0.5;"></ellipse> </g> <g transform="matrix(1,0,0,1,5.17145,1.80689)"> <ellipse cx="116" cy="36" rx="7" ry="15" style="fill:rgb(50,53,58);fill-opacity:0.5;"></ellipse> </g> <g transform="matrix(1,0,0,1,5.17145,1.80689)"> <circle cx="68" cy="59" r="4" style="fill:rgb(35,129,235);fill-opacity:0.5;"></circle> </g> <g transform="matrix(1,0,0,1,5.17145,1.80689)"> <ellipse cx="107" cy="21" rx="11" ry="6" style="fill:rgb(16,33,56);fill-opacity:0.5;"></ellipse> </g> <g transform="matrix(1,0,0,1,5.17145,1.80689)"> <ellipse cx="125" cy="28" rx="4" ry="5" style="fill:rgb(44,99,149);fill-opacity:0.5;"></ellipse> </g> <g transform="matrix(1,0,0,1,5.17145,1.80689)"> <ellipse cx="105" cy="82" rx="4" ry="6" style="fill:rgb(0,9,35);fill-opacity:0.5;"></ellipse> </g> <g transform="matrix(1,0,0,1,5.17145,1.80689)"> <ellipse cx="53" cy="50" rx="5" ry="6" style="fill:rgb(196,240,220);fill-opacity:0.5;"></ellipse> </g> <g transform="matrix(1,0,0,1,5.17145,1.80689)"> <ellipse cx="68" cy="13" rx="1" ry="2" style="fill:rgb(212,222,222);fill-opacity:0.5;"></ellipse> </g> <g transform="matrix(1,0,0,1,5.17145,1.80689)"> <ellipse cx="75" cy="63" rx="5" ry="4" style="fill:rgb(7,78,169);fill-opacity:0.5;"></ellipse> </g> <g transform="matrix(1,0,0,1,5.17145,1.80689)"> <circle cx="67" cy="44" r="3" style="fill:rgb(221,254,255);fill-opacity:0.5;"></circle> </g> <g transform="matrix(1,0,0,1,5.17145,1.80689)"> <ellipse cx="86" cy="4" rx="14" ry="2" style="fill:rgb(0,37,104);fill-opacity:0.5;"></ellipse> </g> <g transform="matrix(1,0,0,1,5.17145,1.80689)"> <ellipse cx="50" cy="69" rx="2" ry="5" style="fill:rgb(12,107,200);fill-opacity:0.5;"></ellipse> </g> <g transform="matrix(1,0,0,1,5.17145,1.80689)"> <ellipse cx="46" cy="61" rx="1" ry="5" style="fill:rgb(0,37,122);fill-opacity:0.5;"></ellipse> </g> <g transform="matrix(1,0,0,1,5.17145,1.80689)"> <circle cx="106" cy="32" r="6" style="fill:rgb(88,93,104);fill-opacity:0.5;"></circle> </g> <g transform="matrix(1,0,0,1,5.17145,1.80689)"> <ellipse cx="89" cy="94" rx="14" ry="2" style="fill:rgb(0,38,106);fill-opacity:0.5;"></ellipse> </g> <g transform="matrix(1,0,0,1,5.17145,1.80689)"> <circle cx="117" cy="83" r="4" style="fill:rgb(0,47,128);fill-opacity:0.5;"></circle> </g> <g transform="matrix(1,0,0,1,5.17145,1.80689)"> <ellipse cx="51" cy="55" rx="3" ry="14" style="fill:rgb(185,234,235);fill-opacity:0.5;"></ellipse> </g> <g transform="matrix(1,0,0,1,5.17145,1.80689)"> <ellipse cx="74" cy="6" rx="6" ry="3" style="fill:rgb(0,28,84);fill-opacity:0.5;"></ellipse> </g> <g transform="matrix(1,0,0,1,5.17145,1.80689)"> <ellipse cx="114" cy="12" rx="4" ry="3" style="fill:rgb(6,60,126);fill-opacity:0.5;"></ellipse> </g> <g transform="matrix(1,0,0,1,5.17145,1.80689)"> <ellipse cx="60" cy="78" rx="2" ry="3" style="fill:rgb(176,208,255);fill-opacity:0.5;"></ellipse> </g> <g transform="matrix(1,0,0,1,5.17145,1.80689)"> <ellipse cx="109" cy="49" rx="13" ry="6" style="fill:rgb(30,50,53);fill-opacity:0.5;"></ellipse> </g> <g transform="matrix(1,0,0,1,5.17145,1.80689)"> <ellipse cx="65" cy="10" rx="4" ry="3" style="fill:rgb(0,36,103);fill-opacity:0.5;"></ellipse> </g> <g transform="matrix(1,0,0,1,5.17145,1.80689)"> <ellipse cx="128" cy="54" rx="2" ry="18" style="fill:rgb(1,59,156);fill-opacity:0.5;"></ellipse> </g> <g transform="matrix(1,0,0,1,5.17145,1.80689)"> <circle cx="93" cy="50" r="3" style="fill:rgb(114,138,166);fill-opacity:0.5;"></circle> </g> <g transform="matrix(1,0,0,1,5.17145,1.80689)"> <ellipse cx="54" cy="19" rx="3" ry="4" style="fill:rgb(0,46,113);fill-opacity:0.5;"></ellipse> </g> <g transform="matrix(1,0,0,1,5.17145,1.80689)"> <ellipse cx="75" cy="80" rx="2" ry="10" style="fill:rgb(94,133,178);fill-opacity:0.5;"></ellipse> </g> <g transform="matrix(1,0,0,1,5.17145,1.80689)"> <ellipse cx="59" cy="84" rx="4" ry="3" style="fill:rgb(0,44,117);fill-opacity:0.5;"></ellipse> </g> <g transform="matrix(1,0,0,1,5.17145,1.80689)"> <ellipse cx="81" cy="54" rx="4" ry="11" style="fill:rgb(15,79,162);fill-opacity:0.5;"></ellipse> </g> <g transform="matrix(1,0,0,1,5.17145,1.80689)"> <ellipse cx="132" cy="48" rx="1" ry="7" style="fill:rgb(17,111,209);fill-opacity:0.5;"></ellipse> </g> <g transform="matrix(1,0,0,1,5.17145,1.80689)"> <ellipse cx="93" cy="89" rx="10" ry="3" style="fill:rgb(52,56,57);fill-opacity:0.5;"></ellipse> </g> <g transform="matrix(1,0,0,1,5.17145,1.80689)"> <ellipse cx="105" cy="63" rx="5" ry="11" style="fill:rgb(62,71,67);fill-opacity:0.5;"></ellipse> </g> <g transform="matrix(1,0,0,1,5.17145,1.80689)"> <ellipse cx="70" cy="46" rx="6" ry="2" style="fill:rgb(171,241,255);fill-opacity:0.5;"></ellipse> </g> <g transform="matrix(1,0,0,1,5.17145,1.80689)"> <ellipse cx="80" cy="86" rx="4" ry="7" style="fill:rgb(46,83,126);fill-opacity:0.5;"></ellipse> </g> <g transform="matrix(1,0,0,1,5.17145,1.80689)"> <ellipse cx="88" cy="22" rx="3" ry="4" style="fill:rgb(79,82,82);fill-opacity:0.5;"></ellipse> </g> <g transform="matrix(1,0,0,1,5.17145,1.80689)"> <ellipse cx="64" cy="77" rx="3" ry="5" style="fill:rgb(5,114,228);fill-opacity:0.5;"></ellipse> </g> <g transform="matrix(1,0,0,1,5.17145,1.80689)"> <ellipse cx="67" cy="89" rx="4" ry="2" style="fill:rgb(0,45,109);fill-opacity:0.5;"></ellipse> </g> <g transform="matrix(1,0,0,1,5.17145,1.80689)"> <ellipse cx="57" cy="59" rx="2" ry="12" style="fill:rgb(153,211,188);fill-opacity:0.5;"></ellipse> </g> <g transform="matrix(1,0,0,1,5.17145,1.80689)"> <ellipse cx="83" cy="18" rx="4" ry="10" style="fill:rgb(12,58,117);fill-opacity:0.5;"></ellipse> </g> <g transform="matrix(1,0,0,1,5.17145,1.80689)"> <ellipse cx="49" cy="72" rx="2" ry="5" style="fill:rgb(5,49,112);fill-opacity:0.5;"></ellipse> </g> <g transform="matrix(1,0,0,1,5.17145,1.80689)"> <circle cx="75" cy="78" r="2" style="fill:rgb(10,72,149);fill-opacity:0.5;"></circle> </g> <g transform="matrix(1,0,0,1,5.17145,1.80689)"> <ellipse cx="110" cy="87" rx="4" ry="3" style="fill:rgb(17,65,128);fill-opacity:0.5;"></ellipse> </g> <g transform="matrix(1,0,0,1,5.17145,1.80689)"> <circle cx="73" cy="71" r="2" style="fill:rgb(179,194,203);fill-opacity:0.5;"></circle> </g> <g transform="matrix(1,0,0,1,5.17145,1.80689)"> <ellipse cx="106" cy="8" rx="5" ry="2" style="fill:rgb(0,51,123);fill-opacity:0.5;"></ellipse> </g> <g transform="matrix(0.774746,0.632273,-0.632273,0.774746,52.7223,-55.739)"> <ellipse cx="106" cy="8" rx="5" ry="2" style="fill:rgb(0,51,123);fill-opacity:0.5;"></ellipse> </g> <g transform="matrix(1,0,0,1,5.17145,1.80689)"> <ellipse cx="104" cy="91" rx="6" ry="2" style="fill:rgb(7,53,119);fill-opacity:0.5;"></ellipse> </g> <g transform="matrix(1,0,0,1,5.17145,1.80689)"> <ellipse cx="60" cy="19" rx="2" ry="3" style="fill:rgb(74,162,220);fill-opacity:0.5;"></ellipse> </g> <g transform="matrix(1,0,0,1,5.17145,1.80689)"> <circle cx="67" cy="49" r="3" style="fill:rgb(98,233,255);fill-opacity:0.5;"></circle> </g> <g transform="matrix(1,0,0,1,5.17145,1.80689)"> <ellipse cx="77" cy="35" rx="2" ry="3" style="fill:rgb(1,77,180);fill-opacity:0.5;"></ellipse> </g> <g transform="matrix(1,0,0,1,5.17145,1.80689)"> <ellipse cx="80" cy="68" rx="5" ry="6" style="fill:rgb(11,63,129);fill-opacity:0.5;"></ellipse> </g> <g transform="matrix(1,0,0,1,5.17145,1.80689)"> <ellipse cx="55" cy="26" rx="2" ry="3" style="fill:rgb(140,213,240);fill-opacity:0.5;"></ellipse> </g> <g transform="matrix(1,0,0,1,5.17145,1.80689)"> <ellipse cx="54" cy="79" rx="3" ry="5" style="fill:rgb(0,47,118);fill-opacity:0.5;"></ellipse> </g> <g transform="matrix(1,0,0,1,5.17145,1.80689)"> <circle cx="70" cy="73" r="3" style="fill:rgb(14,91,179);fill-opacity:0.5;"></circle> </g> <g transform="matrix(1,0,0,1,5.17145,1.80689)"> <ellipse cx="92" cy="30" rx="7" ry="6" style="fill:rgb(130,122,127);fill-opacity:0.5;"></ellipse> </g> <g transform="matrix(1,0,0,1,5.17145,1.80689)"> <ellipse cx="53" cy="33" rx="4" ry="6" style="fill:rgb(32,156,251);fill-opacity:0.5;"></ellipse> </g> <g transform="matrix(1,0,0,1,5.17145,1.80689)"> <ellipse cx="53" cy="69" rx="2" ry="3" style="fill:rgb(158,223,255);fill-opacity:0.5;"></ellipse> </g> <g transform="matrix(1,0,0,1,5.17145,1.80689)"> <ellipse cx="50" cy="47" rx="3" ry="6" style="fill:rgb(209,240,217);fill-opacity:0.5;"></ellipse> </g> <g transform="matrix(1,0,0,1,5.17145,1.80689)"> <ellipse cx="85" cy="43" rx="4" ry="3" style="fill:rgb(98,130,118);fill-opacity:0.5;"></ellipse> </g> <g transform="matrix(1,0,0,1,5.17145,1.80689)"> <ellipse cx="62" cy="81" rx="1" ry="2" style="fill:rgb(171,204,245);fill-opacity:0.5;"></ellipse> </g> <g transform="matrix(1,0,0,1,5.17145,1.80689)"> <ellipse cx="46" cy="46" rx="1" ry="7" style="fill:rgb(32,138,228);fill-opacity:0.5;"></ellipse> </g> <g transform="matrix(1,0,0,1,5.17145,1.80689)"> <ellipse cx="74" cy="58" rx="4" ry="3" style="fill:rgb(47,120,212);fill-opacity:0.5;"></ellipse> </g> <g transform="matrix(1,0,0,1,5.17145,1.80689)"> <ellipse cx="68" cy="65" rx="2" ry="3" style="fill:rgb(122,170,217);fill-opacity:0.5;"></ellipse> </g> <g transform="matrix(1,0,0,1,5.17145,1.80689)"> <circle cx="74" cy="10" r="2" style="fill:rgb(131,166,197);fill-opacity:0.5;"></circle> </g> <g transform="matrix(1,0,0,1,5.17145,1.80689)"> <ellipse cx="97" cy="56" rx="2" ry="11" style="fill:rgb(3,48,110);fill-opacity:0.5;"></ellipse> </g> <g transform="matrix(1,0,0,1,5.17145,1.80689)"> <ellipse cx="84" cy="74" rx="5" ry="8" style="fill:rgb(24,64,114);fill-opacity:0.5;"></ellipse> </g> </g> </g> <defs> <linearGradient id="_Linear1" x1="0" y1="0" x2="1" y2="0" gradientUnits="userSpaceOnUse" gradientTransform="matrix(-8.40607,25.1763,-12.5882,-16.8121,97.527,56.7102)"><stop offset="0" style="stop-color:rgb(0,145,215);stop-opacity:0.76"></stop><stop offset="1" style="stop-color:rgb(32,49,255);stop-opacity:0.76"></stop></linearGradient> </defs> </svg> 